<?xml version="1.0" encoding="utf-8"?>
<!-- Created with sK1 2.0rc3 (http://sk1project.net/) -->
<svg xmlns:rdf="http://www.w3.org/1999/02/22-rdf-syntax-ns#" xmlns="http://www.w3.org/2000/svg" xmlns:svg="http://www.w3.org/2000/svg" height="960.0" viewBox="0 0 1400.0 960.0" width="1400.0" version="1.1" xmlns:cc="http://creativecommons.org/ns#" xmlns:xlink="http://www.w3.org/1999/xlink" id="svg2" xmlns:dc="http://purl.org/dc/elements/1.1/">

<g>
	<path style="fill:#e67070;" d="M 167.8348,423.0027 L 346.938,423.0027 346.938,717.3972 167.8348,717.3972 167.8348,423.0027 Z" />
	<path style="fill:#e67070;" d="M 167.8348,423.0027 C 257.3864,324.8711 346.938,423.0027 346.938,423.0027 L 167.8348,423.0027" />
	<path style="fill:#e67070;" d="M 167.8348,717.3972 C 257.3864,815.5287 346.938,717.3972 346.938,717.3972 L 167.8348,717.3972" />
	<path style="stroke:#000000;stroke-width:2.7344;stroke-miterlimit:4.0;fill:#000000;" d="M 167.8348,423.0027 L 167.8348,717.3972" />
	<path style="stroke:#000000;stroke-width:2.7344;stroke-miterlimit:4.0;fill:#000000;" d="M 346.938,423.0027 L 346.938,717.3972" />
	<path style="stroke:#000000;stroke-width:2.7344;stroke-miterlimit:4.0;fill:none;" d="M 167.8348,423.0027 C 257.3864,324.8711 346.938,423.0027 346.938,423.0027" />
	<path style="stroke:#000000;stroke-width:2.7344;stroke-miterlimit:4.0;fill:none;" d="M 167.8348,717.3972 C 257.3864,815.5287 346.938,717.3972 346.938,717.3972" />
	<path style="fill:#7f7f7f;" d="M 458.3648,207.784 C 458.3648,178.3798 503.4823,178.3798 503.4823,207.784 L 458.3648,207.784" />
	<path style="fill:#7f7f7f;" d="M 435.806,207.784 L 526.0411,294.8669 526.0411,207.784 435.806,294.8669 435.806,207.784 Z" />
	<path style="stroke:#000000;stroke-width:2.7344;stroke-miterlimit:4.0;fill:none;" d="M 435.806,207.784 L 526.0411,294.8669 526.0411,207.784 435.806,294.8669 435.806,207.784 Z" />
	<path style="stroke:#000000;stroke-width:2.7344;stroke-miterlimit:4.0;fill:#000000;" d="M 480.9236,251.3078 L 480.9236,207.784" />
	<path style="stroke:#000000;stroke-width:2.7344;stroke-miterlimit:4.0;fill:#000000;" d="M 458.3648,207.784 L 503.4823,207.784" />
	<path style="stroke:#000000;stroke-width:2.7344;stroke-miterlimit:4.0;fill:none;" d="M 458.3648,207.784 C 458.3648,178.3798 503.4823,178.3798 503.4823,207.784" />
	<path style="stroke:#ff0000;stroke-width:8.2032;stroke-miterlimit:4.0;fill:none;" d="M 257.3864,378.8435 L 271.3865,378.8435 271.3865,251.3078 416.3917,251.3078" />
	<path style="fill:#ff0000;" d="M 426.6457,251.3078 L 412.9737,260.1326 416.3917,251.3078 412.9737,242.483 426.6457,251.3078 Z" />
	<path style="stroke:#ff0000;stroke-width:8.2032;stroke-miterlimit:4.0;fill:none;" d="M 426.6457,251.3078 L 412.9737,260.1326 416.3917,251.3078 412.9737,242.483 426.6457,251.3078 Z" />
	<path style="stroke:#000000;stroke-width:2.7344;stroke-miterlimit:4.0;fill:#000000;" d="M 257.3864,378.8435 L 258.07,162.4952" />
	<path style="fill:#00ff00;" d="M 330.5707,90.1321 C 330.5707,130.1659 298.1043,162.632 258.0701,162.632 218.0358,162.632 185.5694,130.1659 185.5694,90.1321 185.5694,50.0983 218.0358,17.6322 258.0701,17.6322 298.1043,17.6322 330.5707,50.0983 330.5707,90.1321 Z" />
	<path style="stroke:#000000;stroke-width:3.5366;stroke-miterlimit:4.0;fill:none;" d="M 330.5707,90.1321 C 330.5707,130.1659 298.1043,162.632 258.0701,162.632 218.0358,162.632 185.5694,130.1659 185.5694,90.1321 185.5694,50.0983 218.0358,17.6322 258.0701,17.6322 298.1043,17.6322 330.5707,50.0983 330.5707,90.1321 Z" />
	<g>
		<g>
			<path style="fill:#000000;" d="M 210.2386,74.4681 L 210.2386,85.1085 214.8846,85.1085 C 216.6141,85.1085 217.9478,84.6505 218.8858,83.7309 219.8238,82.8039 220.2928,81.4885 220.2928,79.7883 220.2928,78.0992 219.8238,76.7911 218.8858,75.8605 217.9478,74.9334 216.6141,74.4681 214.8846,74.4681 Z M 206.5306,71.3463 L 214.8846,71.3463 C 217.9514,71.3463 220.2671,72.0645 221.8317,73.5008 223.4036,74.9371 224.1913,77.033 224.1913,79.7883 224.1913,82.5657 223.4036,84.6652 221.8317,86.0905 220.2671,87.5195 217.9514,88.2303 214.8846,88.2303 L 210.2386,88.2303 210.2386,99.4863 206.5306,99.4863 Z" />
			<path style="fill:#000000;" d="M 239.8589,82.1187 C 239.4778,81.8952 239.0601,81.7339 238.6131,81.635 238.1734,81.5288 237.6824,81.4738 237.1475,81.4738 235.2422,81.4738 233.7765,82.0967 232.7506,83.3351 231.732,84.5663 231.2263,86.347 231.2263,88.67 L 231.2263,99.4863 227.8407,99.4863 227.8407,78.8503 231.2263,78.8503 231.2263,82.148 C 231.9298,80.8802 232.8459,79.9349 233.9817,79.3193 235.1249,78.6964 236.5063,78.3813 238.1294,78.3813 238.3639,78.3813 238.6168,78.396 238.8916,78.4253 239.1737,78.4546 239.4851,78.4986 239.8296,78.5572 Z" />
			<path style="fill:#000000;" d="M 259.5862,88.3329 L 259.5862,89.9891 244.0799,89.9891 C 244.2264,92.2864 244.9226,94.0342 246.1757,95.236 247.4362,96.4305 249.1802,97.0241 251.408,97.0241 252.7051,97.0241 253.9619,96.8702 255.1747,96.5551 256.3948,96.2436 257.6003,95.7746 258.7947,95.1481 L 258.7947,98.3431 C 257.5819,98.8708 256.3398,99.2738 255.0721,99.545 253.8006,99.8161 252.5145,99.9553 251.2175,99.9553 247.9418,99.9553 245.3476,99.0027 243.435,97.0974 241.5187,95.192 240.5624,92.6125 240.5624,89.3589 240.5624,85.9989 241.4711,83.3315 243.2884,81.3565 245.1058,79.3743 247.5534,78.3813 250.6312,78.3813 253.3866,78.3813 255.563,79.2754 257.1679,81.0634 258.7801,82.8515 259.5862,85.2771 259.5862,88.3329 Z M 256.2152,87.2923 C 256.1859,85.475 255.6656,84.024 254.6617,82.9394 253.6541,81.8549 252.3204,81.3126 250.6605,81.3126 248.7845,81.3126 247.2786,81.8402 246.1464,82.8955 245.0105,83.9434 244.362,85.409 244.1971,87.2923 Z" />
			<path style="fill:#000000;" d="M 278.566,79.5099 L 278.566,82.7342 C 277.606,82.2469 276.6167,81.8842 275.5908,81.6497 274.5649,81.4078 273.5023,81.2833 272.4104,81.2833 270.7396,81.2833 269.4828,81.5434 268.6437,82.06 267.801,82.5694 267.3833,83.3315 267.3833,84.3464 267.3833,85.1379 267.6801,85.7534 268.2773,86.1931 268.8819,86.6328 270.0874,87.0578 271.8974,87.4682 L 273.0553,87.7174 C 275.4479,88.2267 277.148,88.9485 278.1557,89.8865 279.1596,90.8172 279.6652,92.1142 279.6652,93.785 279.6652,95.6904 278.9068,97.1963 277.3935,98.2992 275.8876,99.4057 273.8174,99.9553 271.1793,99.9553 270.0837,99.9553 268.9405,99.8417 267.7497,99.6182 266.5552,99.4057 265.3021,99.076 263.9831,98.6363 L 263.9831,95.1334 C 265.2215,95.7783 266.449,96.262 267.6618,96.5844 268.8709,96.9068 270.0691,97.068 271.2526,97.068 272.8428,97.068 274.0666,96.7969 274.9166,96.2473 275.774,95.7014 276.2064,94.9356 276.2064,93.9463 276.2064,93.0376 275.8913,92.3451 275.2684,91.8651 274.6528,91.3778 273.3044,90.9051 271.2232,90.4434 L 270.0507,90.1796 C 267.9586,89.7399 266.449,89.0657 265.522,88.157 264.5913,87.241 264.1296,85.9953 264.1296,84.4197 264.1296,82.4961 264.8111,81.0121 266.1815,79.9642 267.5482,78.909 269.4865,78.3813 272.0,78.3813 273.2495,78.3813 274.422,78.4803 275.5175,78.6745 276.6204,78.8613 277.6354,79.1398 278.566,79.5099 Z" />
			<path style="fill:#000000;" d="M 298.264,79.5099 L 298.264,82.7342 C 297.304,82.2469 296.3147,81.8842 295.2888,81.6497 294.2629,81.4078 293.2003,81.2833 292.1084,81.2833 290.4376,81.2833 289.1808,81.5434 288.3417,82.06 287.499,82.5694 287.0813,83.3315 287.0813,84.3464 287.0813,85.1379 287.3781,85.7534 287.9753,86.1931 288.5799,86.6328 289.7854,87.0578 291.5954,87.4682 L 292.7533,87.7174 C 295.1459,88.2267 296.846,88.9485 297.8537,89.8865 298.8576,90.8172 299.3632,92.1142 299.3632,93.785 299.3632,95.6904 298.6048,97.1963 297.0915,98.2992 295.5856,99.4057 293.5154,99.9553 290.8773,99.9553 289.7817,99.9553 288.6385,99.8417 287.4477,99.6182 286.2532,99.4057 285.0001,99.076 283.6811,98.6363 L 283.6811,95.1334 C 284.9195,95.7783 286.147,96.262 287.3598,96.5844 288.5689,96.9068 289.7671,97.068 290.9506,97.068 292.5408,97.068 293.7646,96.7969 294.6146,96.2473 295.472,95.7014 295.9044,94.9356 295.9044,93.9463 295.9044,93.0376 295.5893,92.3451 294.9664,91.8651 294.3508,91.3778 293.0024,90.9051 290.9212,90.4434 L 289.7487,90.1796 C 287.6566,89.7399 286.147,89.0657 285.22,88.157 284.2893,87.241 283.8276,85.9953 283.8276,84.4197 283.8276,82.4961 284.5091,81.0121 285.8795,79.9642 287.2462,78.909 289.1845,78.3813 291.698,78.3813 292.9475,78.3813 294.12,78.4803 295.2155,78.6745 296.3184,78.8613 297.3334,79.1398 298.264,79.5099 Z" />
			<path style="fill:#000000;" d="M 314.21,89.0657 C 311.484,89.0657 309.5933,89.3735 308.5381,89.9891 307.4901,90.6046 306.9698,91.6672 306.9698,93.1695 306.9698,94.364 307.3582,95.3093 308.1423,96.0128 308.9338,96.7163 310.0074,97.068 311.3667,97.068 313.2317,97.068 314.7267,96.4085 315.8515,95.0895 316.9837,93.7631 317.5517,92.0043 317.5517,89.8132 L 317.5517,89.0657 Z M 320.9226,87.732 L 320.9226,99.4863 317.5517,99.4863 317.5517,96.2473 C 316.7895,97.5187 315.8295,98.4567 314.679,99.0613 313.5358,99.6549 312.1325,99.9553 310.4727,99.9553 308.3695,99.9553 306.6987,99.3654 305.4602,98.1819 304.2181,96.9911 303.5989,95.3972 303.5989,93.404 303.5989,91.07 304.3684,89.3112 305.9146,88.1277 307.4572,86.9479 309.7619,86.3543 312.8323,86.3543 L 317.5517,86.3543 317.5517,86.0319 C 317.5517,84.537 317.0424,83.3791 316.0274,82.5584 315.0088,81.7303 313.5798,81.3126 311.7331,81.3126 310.5606,81.3126 309.4174,81.4518 308.3036,81.723 307.1897,81.9978 306.1198,82.4045 305.0938,82.9394 L 305.0938,79.847 C 306.3323,79.3596 307.5304,78.9932 308.6846,78.7477 309.8461,78.5059 310.9783,78.3813 312.0849,78.3813 315.0454,78.3813 317.2585,79.1581 318.7242,80.7117 320.1898,82.2579 320.9226,84.5956 320.9226,87.732 Z M 312.1582,73.5594 L 311.1029,72.5628 C 310.8391,72.321 310.6046,72.1451 310.3994,72.0352 310.2015,71.9179 310.022,71.8593 309.8571,71.8593 309.3955,71.8593 309.0547,72.0791 308.8312,72.5188 308.615,72.9585 308.4941,73.6767 308.4648,74.6733 L 306.1784,74.6733 C 306.2077,73.0135 306.5302,71.7347 307.1457,70.8334 307.7686,69.9247 308.6407,69.4703 309.7545,69.4703 310.2125,69.4703 310.6376,69.5546 311.0296,69.7195 311.418,69.888 311.843,70.1738 312.3047,70.5842 L 313.3453,71.5808 C 313.6091,71.8263 313.8436,72.0059 314.0488,72.1231 314.254,72.233 314.4335,72.2843 314.5911,72.2843 315.0491,72.2843 315.3862,72.0645 315.6024,71.6248 315.8259,71.1851 315.9541,70.467 315.9834,69.4703 L 318.2698,69.4703 C 318.2478,71.1338 317.9254,72.4162 317.3025,73.3249 316.6759,74.2263 315.8076,74.6733 314.6937,74.6733 314.232,74.6733 313.807,74.5927 313.4186,74.4241 313.0265,74.2483 312.6052,73.9625 312.1582,73.5594 Z" />
			<path style="fill:#000000;" d="M 336.2823,81.3126 C 334.4723,81.3126 333.0433,82.0161 331.9881,83.4231 330.9401,84.8228 330.4198,86.7354 330.4198,89.1683 330.4198,91.6123 330.9401,93.5322 331.9881,94.9282 333.0323,96.3279 334.465,97.0241 336.2823,97.0241 338.0777,97.0241 339.4994,96.3206 340.5473,94.9136 341.6026,93.5066 342.1302,91.5939 342.1302,89.1683 342.1302,86.7574 341.6026,84.8447 340.5473,83.4377 339.4994,82.0234 338.0777,81.3126 336.2823,81.3126 Z M 336.2823,78.3813 C 339.2136,78.3813 341.5146,79.3413 343.1854,81.254 344.8562,83.1593 345.6917,85.7974 345.6917,89.1683 345.6917,92.5393 344.8562,95.1847 343.1854,97.0974 341.5146,99.0027 339.2136,99.9553 336.2823,99.9553 333.3401,99.9553 331.0354,99.0027 329.3646,97.0974 327.6938,95.1847 326.8584,92.5393 326.8584,89.1683 326.8584,85.7974 327.6938,83.1593 329.3646,81.254 331.0354,79.3413 333.3401,78.3813 336.2823,78.3813 Z" />
		</g>
	</g>
	<path style="fill:#e67070;" d="M 1070.925,479.3047 L 906.861,365.1827 906.861,251.0254 1070.925,136.9034 1070.925,479.3047 Z" />
	<path style="stroke:#000000;stroke-width:2.7344;stroke-miterlimit:4.0;fill:none;" d="M 1070.925,479.3047 L 906.861,365.1827 906.861,251.0254 1070.925,136.9034 1070.925,479.3047 Z" />
	<path style="stroke:#000000;stroke-width:2.7344;stroke-miterlimit:4.0;fill:none;" d="M 1070.925,479.3047 L 906.861,365.1827 906.861,251.0254 1070.925,136.9034 1070.925,479.3047 Z" />
	<path style="stroke:#000000;stroke-width:2.7344;stroke-miterlimit:4.0;fill:#000000;" d="M 677.855,250.743 L 678.0738,177.7092" />
	<path style="fill:#00ff00;" d="M 754.0392,100.7601 C 754.0392,141.6731 720.9767,174.8521 680.2075,174.8521 639.4384,174.8521 606.3759,141.6731 606.3759,100.7601 606.3759,59.8472 639.4384,26.6681 680.2075,26.6681 720.9767,26.6681 754.0392,59.8472 754.0392,100.7601 Z" />
	<path style="stroke:#000000;stroke-width:3.3064;stroke-miterlimit:4.0;fill:none;" d="M 751.7032,98.9442 C 751.7032,139.8572 718.6408,173.0362 677.8716,173.0362 637.1024,173.0362 604.04,139.8572 604.04,98.9442 604.04,58.0313 637.1024,24.8522 677.8716,24.8522 718.6408,24.8522 751.7032,58.0313 751.7032,98.9442 Z" />
	<g>
		<g>
			<path style="fill:#000000;" d="M 618.1603,85.3101 L 635.5133,85.3101 635.5133,87.6844 628.2438,87.6844 628.2438,105.9461 625.4445,105.9461 625.4445,87.6844 618.1603,87.6844 Z" />
			<path style="fill:#000000;" d="M 646.2563,97.2403 L 646.2563,98.4421 634.6339,98.4421 C 634.7402,100.1825 635.2641,101.5052 636.2021,102.4139 637.1401,103.3153 638.4482,103.7623 640.13,103.7623 641.0973,103.7623 642.0353,103.645 642.944,103.4105 643.86,103.176 644.7687,102.8206 645.6701,102.3406 L 645.6701,104.7443 C 644.7614,105.1363 643.8271,105.4331 642.8707,105.6383 641.9217,105.8435 640.9581,105.9461 639.9835,105.9461 637.5212,105.9461 635.5719,105.2389 634.1356,103.8209 632.7066,102.4066 631.9958,100.5013 631.9958,98.105 631.9958,95.6134 632.6736,93.6421 634.033,92.1838 635.3887,90.7292 637.2281,90.0001 639.5438,90.0001 641.614,90.0001 643.2518,90.6523 644.4536,91.9493 645.6554,93.2501 646.2563,95.0125 646.2563,97.2403 Z M 643.7355,96.4635 C 643.7135,95.1554 643.3251,94.1148 642.563,93.3417 641.8082,92.5612 640.8115,92.1692 639.5731,92.1692 638.1551,92.1692 637.0229,92.5466 636.1728,93.2977 635.3301,94.0415 634.8464,95.0968 634.7219,96.4635 Z" />
			<path style="fill:#000000;" d="M 661.9532,93.3563 C 662.5871,92.2132 663.3455,91.3704 664.2249,90.8208 665.1043,90.2749 666.1375,90.0001 667.332,90.0001 668.9332,90.0001 670.168,90.568 671.04,91.7002 671.9084,92.836 672.3445,94.4519 672.3445,96.5514 L 672.3445,105.9461 669.8089,105.9461 669.8089,96.6247 C 669.8089,95.1407 669.5451,94.0379 669.0175,93.3124 668.4972,92.5796 667.7021,92.2132 666.6285,92.2132 665.3168,92.2132 664.2835,92.6602 663.5214,93.5469 662.7666,94.4263 662.3929,95.6244 662.3929,97.1377 L 662.3929,105.9461 659.8427,105.9461 659.8427,96.6247 C 659.8427,95.1298 659.5789,94.0232 659.0512,93.2977 658.5309,92.5759 657.7322,92.2132 656.6476,92.2132 655.3469,92.2132 654.3173,92.6602 653.5551,93.5469 652.8003,94.4372 652.4266,95.6354 652.4266,97.1377 L 652.4266,105.9461 649.8764,105.9461 649.8764,90.0001 652.4266,90.0001 652.4266,92.7848 C 653.0019,91.8394 653.6907,91.1396 654.4931,90.6889 655.3029,90.2309 656.2592,90.0001 657.3658,90.0001 658.487,90.0001 659.4396,90.2895 660.2237,90.8648 661.0042,91.4327 661.5794,92.2645 661.9532,93.3563 Z" />
			<path style="fill:#000000;" d="M 679.6286,103.22 L 679.6286,111.5741 677.0784,111.5741 677.0784,90.0001 679.6286,90.0001 679.6286,92.7115 C 680.1562,91.7955 680.8231,91.1139 681.6365,90.6743 682.4463,90.2272 683.4136,90.0001 684.5385,90.0001 686.4145,90.0001 687.9314,90.7329 689.0965,92.1985 690.269,93.6568 690.8553,95.5804 690.8553,97.9731 690.8553,100.3584 690.269,102.282 689.0965,103.7476 687.9314,105.2133 686.4145,105.9461 684.5385,105.9461 683.4136,105.9461 682.4463,105.7226 681.6365,105.2719 680.8231,104.8139 680.1562,104.1287 679.6286,103.22 Z M 688.2318,97.9731 C 688.2318,96.1557 687.8434,94.7304 687.074,93.6934 686.3119,92.6602 685.2603,92.1399 683.9229,92.1399 682.5818,92.1399 681.5339,92.6602 680.7718,93.6934 680.0097,94.7304 679.6286,96.1557 679.6286,97.9731 679.6286,99.7831 680.0097,101.2048 680.7718,102.238 681.5339,103.275 682.5818,103.7916 683.9229,103.7916 685.2603,103.7916 686.3119,103.275 687.074,102.238 687.8434,101.2048 688.2318,99.7831 688.2318,97.9731 Z" />
			<path style="fill:#000000;" d="M 708.1643,97.2403 L 708.1643,98.4421 696.5419,98.4421 C 696.6482,100.1825 697.1721,101.5052 698.1101,102.4139 699.0481,103.3153 700.3562,103.7623 702.038,103.7623 703.0053,103.7623 703.9433,103.645 704.852,103.4105 705.768,103.176 706.6767,102.8206 707.5781,102.3406 L 707.5781,104.7443 C 706.6694,105.1363 705.7351,105.4331 704.7787,105.6383 703.8297,105.8435 702.8661,105.9461 701.8915,105.9461 699.4292,105.9461 697.4799,105.2389 696.0436,103.8209 694.6146,102.4066 693.9038,100.5013 693.9038,98.105 693.9038,95.6134 694.5816,93.6421 695.941,92.1838 697.2967,90.7292 699.1361,90.0001 701.4518,90.0001 703.522,90.0001 705.1598,90.6523 706.3616,91.9493 707.5634,93.2501 708.1643,95.0125 708.1643,97.2403 Z M 705.6435,96.4635 C 705.6215,95.1554 705.2331,94.1148 704.471,93.3417 703.7162,92.5612 702.7195,92.1692 701.4811,92.1692 700.0631,92.1692 698.9309,92.5466 698.0808,93.2977 697.2381,94.0415 696.7544,95.0968 696.6299,96.4635 Z" />
			<path style="fill:#000000;" d="M 720.798,92.7554 C 720.5122,92.5906 720.2044,92.4696 719.8747,92.389 719.5412,92.3121 719.1748,92.2718 718.7755,92.2718 717.3391,92.2718 716.2399,92.7481 715.4778,93.6934 714.7157,94.6314 714.3346,95.9798 714.3346,97.7386 L 714.3346,105.9461 711.7844,105.9461 711.7844,90.0001 714.3346,90.0001 714.3346,92.7848 C 714.8622,91.8468 715.5511,91.1506 716.4011,90.6889 717.2585,90.2309 718.2955,90.0001 719.5083,90.0001 719.6841,90.0001 719.8747,90.0001 720.0799,90.0001 720.2924,90.0001 720.5269,90.0001 720.7834,90.0001 Z" />
			<path style="fill:#000000;" d="M 730.134,97.636 C 728.0895,97.636 726.6752,97.8778 725.8837,98.3541 725.0996,98.8341 724.7112,99.6512 724.7112,100.8017 724.7112,101.7214 725.0044,102.4505 725.5906,102.9855 726.1842,103.5241 726.9903,103.7916 728.0089,103.7916 729.4049,103.7916 730.5298,103.286 731.3798,102.2673 732.2299,101.2524 732.6549,99.9004 732.6549,98.2076 L 732.6549,97.636 Z M 735.1758,97.0644 L 735.1758,105.9461 732.6549,105.9461 732.6549,103.1614 C 732.076,104.1104 731.3542,104.8139 730.4858,105.2719 729.6247,105.7226 728.5732,105.9461 727.3347,105.9461 725.7592,105.9461 724.506,105.499 723.568,104.5977 722.6374,103.689 722.1757,102.4835 722.1757,100.9776 722.1757,99.2005 722.7546,97.8668 723.9198,96.9764 725.0813,96.0787 726.8107,95.6281 729.1081,95.6281 L 732.6549,95.6281 732.6549,95.4082 C 732.6549,94.3823 732.2665,93.5872 731.4971,93.0193 730.735,92.455 729.665,92.1692 728.2874,92.1692 727.408,92.1692 726.5469,92.2645 725.7079,92.4477 724.8761,92.6345 724.0737,92.913 723.3042,93.2831 L 723.3042,91.0846 C 724.2312,90.7255 725.1289,90.4544 726.001,90.2785 726.8694,90.0953 727.7158,90.0001 728.5365,90.0001 730.7643,90.0001 732.4241,90.5863 733.5196,91.7588 734.6225,92.924 735.1758,94.6901 735.1758,97.0644 Z" />
			<path style="fill:#000000;" d="M 742.5332,85.7791 L 742.5332,90.0001 747.7362,90.0001 747.7362,91.9933 742.5332,91.9933 742.5332,100.7138 C 742.5332,102.0328 742.7018,102.8792 743.0462,103.2493 743.387,103.623 744.0868,103.8063 745.142,103.8063 L 747.7362,103.8063 747.7362,105.9461 745.142,105.9461 C 743.1854,105.9461 741.8371,105.5723 741.0969,104.8175 740.3531,104.0554 739.983,102.6777 739.983,100.6845 L 739.983,91.9933 738.1364,91.9933 738.1364,90.0001 739.983,90.0001 739.983,85.7791 Z" />
			<path style="fill:#000000;" d="M 751.0192,99.4094 L 751.0192,90.0001 753.5547,90.0001 753.5547,99.3068 C 753.5547,100.7724 753.8369,101.879 754.4048,102.6191 754.9691,103.3519 755.8191,103.7183 756.955,103.7183 758.3217,103.7183 759.4026,103.2786 760.194,102.3993 760.9855,101.5199 761.3812,100.3254 761.3812,98.8085 L 761.3812,90.0001 763.9167,90.0001 763.9167,105.9461 761.3812,105.9461 761.3812,103.1467 C 760.7656,104.0957 760.0511,104.7992 759.2414,105.2572 758.4279,105.7189 757.4899,105.9461 756.4274,105.9461 754.6576,105.9461 753.3129,105.3965 752.3969,104.2899 751.4772,103.176 751.0192,101.5492 751.0192,99.4094 Z" />
			<path style="fill:#000000;" d="M 778.016,92.7554 C 777.7302,92.5906 777.4224,92.4696 777.0927,92.389 776.7592,92.3121 776.3928,92.2718 775.9935,92.2718 774.5571,92.2718 773.4579,92.7481 772.6958,93.6934 771.9337,94.6314 771.5526,95.9798 771.5526,97.7386 L 771.5526,105.9461 769.0024,105.9461 769.0024,90.0001 771.5526,90.0001 771.5526,92.7848 C 772.0802,91.8468 772.7691,91.1506 773.6191,90.6889 774.4765,90.2309 775.5135,90.0001 776.7263,90.0001 776.9021,90.0001 777.0927,90.0001 777.2979,90.0001 777.5104,90.0001 777.7449,90.0001 778.0014,90.0001 Z" />
			<path style="fill:#000000;" d="M 787.352,97.636 C 785.3075,97.636 783.8932,97.8778 783.1017,98.3541 782.3176,98.8341 781.9292,99.6512 781.9292,100.8017 781.9292,101.7214 782.2224,102.4505 782.8086,102.9855 783.4022,103.5241 784.2083,103.7916 785.2269,103.7916 786.6229,103.7916 787.7478,103.286 788.5978,102.2673 789.4479,101.2524 789.8729,99.9004 789.8729,98.2076 L 789.8729,97.636 Z M 792.3938,97.0644 L 792.3938,105.9461 789.8729,105.9461 789.8729,103.1614 C 789.294,104.1104 788.5722,104.8139 787.7038,105.2719 786.8427,105.7226 785.7912,105.9461 784.5527,105.9461 782.9772,105.9461 781.724,105.499 780.786,104.5977 779.8554,103.689 779.3937,102.4835 779.3937,100.9776 779.3937,99.2005 779.9726,97.8668 781.1378,96.9764 782.2993,96.0787 784.0287,95.6281 786.3261,95.6281 L 789.8729,95.6281 789.8729,95.4082 C 789.8729,94.3823 789.4845,93.5872 788.7151,93.0193 787.953,92.455 786.883,92.1692 785.5054,92.1692 784.626,92.1692 783.7649,92.2645 782.9259,92.4477 782.0941,92.6345 781.2917,92.913 780.5222,93.2831 L 780.5222,91.0846 C 781.4492,90.7255 782.3469,90.4544 783.219,90.2785 784.0874,90.0953 784.9338,90.0001 785.7545,90.0001 787.9823,90.0001 789.6421,90.5863 790.7376,91.7588 791.8405,92.924 792.3938,94.6901 792.3938,97.0644 Z" />
		</g>
	</g>
	<path style="stroke-miterlimit:4.0;stroke:#000000;stroke-width:2.7344;stroke-dasharray:27.344, 12.3048, 2.7344, 12.3048;fill:#000000;" d="M 906.861,308.1041 L 1070.925,308.1041" />
	<path style="stroke:#000000;stroke-width:8.2032;stroke-miterlimit:4.0;fill:#000000;" d="M 1072.2648,308.1747 L 1284.9191,308.3865" />
	<path style="fill:#000000;" d="M 1295.1731,308.3865 L 1281.5011,317.2112 1284.9191,308.3865 1281.5285,299.5617 1295.1731,308.3865 Z" />
	<path style="stroke:#000000;stroke-width:8.2032;stroke-miterlimit:4.0;fill:none;" d="M 1295.1731,308.3865 L 1281.5011,317.2112 1284.9191,308.3865 1281.5285,299.5617 1295.1731,308.3865 Z" />
	<path style="stroke:#000000;stroke-width:2.7344;stroke-miterlimit:4.0;fill:#000000;" d="M 167.8348,472.0684 L 346.938,472.0684" />
	<path style="stroke-miterlimit:4.0;stroke:#ff0000;stroke-width:5.4688;stroke-dasharray:27.344, 27.344;fill:#000000;" d="M 1069.0383,732.6111 L 1070.925,479.3047" />
	<path style="fill:#ff0000;" d="M 1068.9289,745.8483 L 1062.2296,728.1281 1069.0383,732.6111 1075.9016,728.3046 1068.9289,745.8483 Z" />
	<path style="stroke:#ff0000;stroke-width:5.4688;stroke-miterlimit:4.0;fill:none;" d="M 1068.9289,745.8483 L 1062.2296,728.1281 1069.0383,732.6111 1075.9016,728.3046 1068.9289,745.8483 Z" />
	<path style="fill:#1e90ff;" d="M 170.7373,676.1304 C 170.4232,689.3189 170.6266,702.6623 170.3125,715.8508 196.6065,749.042 237.7463,757.8413 257.4411,758.6102 290.6411,754.5224 318.7613,742.4784 344.5939,716.7005 L 344.3815,676.1304 170.7373,676.1304 Z" />
	<path style="fill:#1e90ff;" d="M 171.9911,474.8923 L 171.9911,674.3323 342.8911,674.3323 342.8911,474.8923 171.9911,474.8923 Z" />
	<path style="stroke:#1e90ff;stroke-width:2.7344;stroke-miterlimit:4.0;fill:none;" d="M 171.9911,474.8923 L 171.9911,674.3323 342.8911,674.3323 342.8911,474.8923" />
	<path style="stroke:#ff0000;stroke-width:5.4688;stroke-miterlimit:4.0;fill:none;" d="M 281.6405,647.858 L 281.6405,516.3688 295.9961,582.0957 310.3517,516.3688 310.3517,647.858" />
	<path style="stroke:#000000;stroke-width:2.7344;stroke-miterlimit:4.0;fill:#000000;" d="M 262.4997,489.012 L 180.1943,504.8966" />
	<path style="stroke:#000000;stroke-width:2.7344;stroke-miterlimit:4.0;fill:#000000;" d="M 180.1943,520.7812 L 262.4997,504.8966" />
	<path style="fill:#00ff00;" d="M 369.2023,515.0788 L 745.6197,515.0788 745.6197,804.1785 C 670.3424,755.9952 632.7038,755.9952 557.3955,804.1785 482.1182,852.3618 444.4796,852.3618 369.2023,804.1785 L 369.2023,515.0788" />
	<path style="stroke:#000000;stroke-width:3.1322;stroke-miterlimit:4.0;fill:none;" d="M 365.339,511.2151 L 745.6196,511.2151 745.6196,800.3148 C 669.5697,752.1315 631.5448,752.1315 555.4636,800.3148 479.4138,848.4981 441.3888,848.4981 365.339,800.3148 L 365.339,511.2151" />
	<g>
		<g>
			<path style="fill:#000000;" d="M 372.5011,520.3911 L 379.111,520.3911 387.4944,542.7418 395.9071,520.3911 402.5317,520.3911 402.5317,553.2211 398.1935,553.2211 398.1935,524.3922 389.7368,546.9189 385.2667,546.9189 376.81,524.3922 376.81,553.2211 372.5011,553.2211 Z" />
			<path style="fill:#000000;" d="M 431.8442,539.5175 L 431.8442,541.3788 413.2454,541.3788 C 413.4213,544.2624 414.2567,546.4609 415.7517,547.9741 417.2539,549.4911 419.3498,550.2458 422.0392,550.2458 423.5927,550.2458 425.095,550.048 426.5533,549.6449 428.0079,549.2456 429.4552,548.6556 430.8916,547.8715 L 430.8916,551.7848 C 429.4443,552.4003 427.9603,552.8766 426.4361,553.2064 424.9118,553.5288 423.3619,553.6901 421.79,553.6901 417.8622,553.6901 414.7477,552.5725 412.454,550.3338 410.1676,548.0987 409.0244,545.0685 409.0244,541.2469 409.0244,537.3007 410.109,534.1679 412.2781,531.8523 414.4546,529.5292 417.3932,528.3641 421.0865,528.3641 424.3988,528.3641 427.015,529.368 428.9423,531.3686 430.8769,533.3728 431.8442,536.0879 431.8442,539.5175 Z M 427.7991,538.2131 C 427.7698,536.2711 427.1469,534.7176 425.9377,533.5524 424.7249,532.3909 423.1237,531.8083 421.1305,531.8083 418.8734,531.8083 417.0634,532.3726 415.7077,533.4938 414.3593,534.6186 413.5825,536.1905 413.3773,538.2131 Z" />
			<path style="fill:#000000;" d="M 455.1183,532.6877 L 455.1183,518.5151 459.1635,518.5151 459.1635,553.2211 455.1183,553.2211 455.1183,549.3665 C 454.2683,550.8321 453.191,551.924 451.894,552.6348 450.6042,553.3383 449.0507,553.6901 447.2333,553.6901 444.2507,553.6901 441.8288,552.5286 439.9638,550.2019 438.0951,547.8789 437.1644,544.8194 437.1644,541.0271 437.1644,537.2384 438.0951,534.1789 439.9638,531.8523 441.8288,529.5292 444.2507,528.3641 447.2333,528.3641 449.0507,528.3641 450.6042,528.7231 451.894,529.434 453.191,530.1485 454.2683,531.233 455.1183,532.6877 Z M 441.3415,541.0271 C 441.3415,543.9217 441.9497,546.1861 443.1735,547.8276 444.3936,549.4691 446.0754,550.2898 448.2152,550.2898 450.3551,550.2898 452.0405,549.4691 453.2717,547.8276 454.5028,546.1861 455.1183,543.9217 455.1183,541.0271 455.1183,538.1361 454.5028,535.8681 453.2717,534.2266 452.0405,532.5851 450.3551,531.7643 448.2152,531.7643 446.0754,531.7643 444.3936,532.5851 443.1735,534.2266 441.9497,535.8681 441.3415,538.1361 441.3415,541.0271 Z" />
			<path style="fill:#000000;" d="M 467.0632,528.8331 L 471.1083,528.8331 471.1083,553.2211 467.0632,553.2211 Z M 467.0632,518.5151 L 471.1083,518.5151 471.1083,523.6448 467.0632,523.6448 Z" />
			<path style="fill:#000000;" d="M 496.9766,529.903 L 496.9766,533.6403 C 495.8334,533.0357 494.6829,532.5814 493.5324,532.2773 492.3782,531.9658 491.2167,531.8083 490.0442,531.8083 487.4244,531.8083 485.3872,532.6144 483.9325,534.2266 482.4852,535.8388 481.7634,538.1068 481.7634,541.0271 481.7634,543.951 482.4852,546.2154 483.9325,547.8276 485.3872,549.4398 487.4244,550.2458 490.0442,550.2458 491.2167,550.2458 492.3782,550.0956 493.5324,549.7915 494.6829,549.4911 495.8334,549.0294 496.9766,548.4138 L 496.9766,552.0925 C 495.8407,552.6202 494.6682,553.0159 493.4591,553.2797 492.2573,553.5508 490.9712,553.6901 489.6045,553.6901 485.9001,553.6901 482.9542,552.5542 480.7668,550.2752 478.5867,547.9888 477.4984,544.9073 477.4984,541.0271 477.4984,537.0919 478.5977,533.9994 480.7961,531.7497 483.0019,529.4926 486.0284,528.3641 489.8683,528.3641 491.1178,528.3641 492.3342,528.4923 493.5177,528.7451 494.7085,529.0016 495.8627,529.3863 496.9766,529.903 Z M 491.2607,553.0452 C 492.0594,553.9429 492.6567,554.7746 493.0487,555.5368 493.4481,556.3062 493.6496,557.039 493.6496,557.7352 493.6496,559.0323 493.2099,560.0106 492.3306,560.6664 491.4512,561.3296 490.1468,561.6631 488.4173,561.6631 487.7432,561.6631 487.0873,561.6191 486.4534,561.5312 485.8159,561.4432 485.182,561.3113 484.5481,561.1354 L 484.5481,558.2628 C 485.0464,558.5046 485.563,558.6805 486.1017,558.7904 486.6476,558.8967 487.2668,558.9517 487.963,558.9517 488.8204,558.9517 489.4726,558.7758 489.9123,558.424 490.352,558.0723 490.5718,557.563 490.5718,556.8998 490.5718,556.4674 490.4143,555.9361 490.1028,555.3023 489.7877,554.6757 489.3004,553.9246 488.6372,553.0452 Z" />
			<path style="fill:#000000;" d="M 514.8279,540.4555 C 511.5632,540.4555 509.3025,540.8439 508.0421,541.6133 506.7816,542.3754 506.1514,543.6762 506.1514,545.5119 506.1514,546.9775 506.6204,548.1427 507.5584,549.0001 508.5037,549.8611 509.7935,550.2898 511.4277,550.2898 513.6627,550.2898 515.4618,549.4801 516.8212,547.8569 518.1769,546.2374 518.8584,544.0756 518.8584,541.3788 L 518.8584,540.4555 Z M 522.9035,539.3856 L 522.9035,553.2211 518.8584,553.2211 518.8584,549.2785 C 517.9277,550.7955 516.7772,551.9093 515.3995,552.6202 514.0218,553.331 512.3363,553.6901 510.3431,553.6901 507.8222,553.6901 505.818,552.9719 504.334,551.5356 502.8464,550.0993 502.1063,548.1793 502.1063,545.7757 502.1063,542.9617 503.0296,540.8439 504.8763,539.4149 506.7303,537.9896 509.5004,537.2751 513.1864,537.2751 L 518.8584,537.2751 518.8584,536.9233 C 518.8584,535.3038 518.2428,534.047 517.0117,533.1567 515.7879,532.259 514.0731,531.8083 511.8673,531.8083 510.4603,531.8083 509.0863,531.9622 507.7489,532.2626 506.4189,532.5558 505.1401,532.9954 503.909,533.5817 L 503.909,530.0935 C 505.382,529.5182 506.8146,529.0896 508.2033,528.8038 509.5993,528.5106 510.9587,528.3641 512.2777,528.3641 515.8428,528.3641 518.5066,529.2801 520.2654,531.1048 522.0241,532.9222 522.9035,535.6849 522.9035,539.3856 Z M 512.3657,522.6628 L 511.1199,521.3437 C 510.7974,521.0213 510.5116,520.7831 510.2698,520.6256 510.0243,520.4717 509.8081,520.3911 509.6249,520.3911 509.068,520.3911 508.6576,520.6842 508.3938,521.2704 508.13,521.8567 507.9834,522.8167 507.9541,524.1431 L 505.1987,524.1431 C 505.2281,522.0436 505.6128,520.4277 506.3566,519.2918 507.1077,518.1597 508.152,517.5917 509.493,517.5917 510.05,517.5917 510.5629,517.7053 511.0319,517.9288 511.5009,518.156 512.0029,518.5371 512.5415,519.072 L 513.802,520.3764 C 514.1244,520.7098 514.4029,520.9553 514.6374,521.1092 514.8792,521.2558 515.099,521.3291 515.2969,521.3291 515.8538,521.3291 516.2642,521.0359 516.528,520.4497 516.7918,519.8634 516.9384,518.9108 516.9677,517.5917 L 519.7084,517.5917 C 519.6791,519.6839 519.2871,521.2998 518.5359,522.4429 517.7921,523.5788 516.7552,524.1431 515.4288,524.1431 514.8719,524.1431 514.3589,524.0331 513.8899,523.806 513.4209,523.5715 512.9116,523.1904 512.3657,522.6628 Z" />
			<path style="fill:#000000;" d="M 540.3884,531.8083 C 538.2193,531.8083 536.5045,532.629 535.2441,534.2705 533.9836,535.912 533.3534,538.1654 533.3534,541.0271 533.3534,543.8924 533.9763,546.1421 535.2294,547.7836 536.4788,549.4251 538.1973,550.2458 540.3884,550.2458 542.5355,550.2458 544.243,549.4214 545.5034,547.7689 546.7639,546.1201 547.3941,543.8704 547.3941,541.0271 547.3941,538.1947 546.7639,535.9523 545.5034,534.2998 544.243,532.64 542.5355,531.8083 540.3884,531.8083 Z M 540.3884,528.3641 C 543.9059,528.3641 546.6649,529.4853 548.6692,531.7203 550.6808,533.9591 551.6884,537.0626 551.6884,541.0271 551.6884,544.9769 550.6808,548.0731 548.6692,550.3191 546.6649,552.5689 543.9059,553.6901 540.3884,553.6901 536.8489,553.6901 534.0789,552.5689 532.0783,550.3191 530.0851,548.0731 529.0884,544.9769 529.0884,541.0271 529.0884,537.0626 530.0851,533.9591 532.0783,531.7203 534.0789,529.4853 536.8489,528.3641 540.3884,528.3641 Z" />
			<path style="fill:#000000;" d="M 559.0751,547.6077 L 563.7212,547.6077 563.7212,553.2211 559.0751,553.2211 Z M 559.0751,529.7857 L 563.7212,529.7857 563.7212,535.3991 559.0751,535.3991 Z" />
		</g>
	</g>
	<g>
		<path style="fill:#000000;" d="M 369.775,586.7803 L 378.9058,586.7803 378.9058,589.6089 369.775,589.6089 Z" />
		<g>
			<path style="fill:#000000;" d="M 408.4528,579.0857 L 408.4528,582.0903 C 407.5735,581.5846 406.6868,581.2036 405.8001,580.9471 404.9097,580.6943 404.0157,580.566 403.118,580.566 401.0954,580.566 399.5199,581.2366 398.3987,582.5739 397.2848,583.915 396.7278,585.791 396.7278,588.2019 396.7278,590.6166 397.2848,592.4926 398.3987,593.8299 399.5199,595.171 401.0954,595.8378 403.118,595.8378 404.0157,595.8378 404.9097,595.7169 405.8001,595.4714 406.6868,595.2186 407.5735,594.8339 408.4528,594.3136 L 408.4528,597.2888 C 407.5808,597.6992 406.6794,598.007 405.7414,598.2122 404.8108,598.4173 403.8251,598.5199 402.7809,598.5199 399.9156,598.5199 397.6439,597.5929 395.9657,595.7352 394.2839,593.8702 393.4448,591.3604 393.4448,588.2019 393.4448,584.9995 394.2949,582.4787 395.995,580.6393 397.6952,578.8036 400.0255,577.8839 402.9861,577.8839 403.9424,577.8839 404.8767,577.9865 405.7854,578.1917 406.7014,578.3896 407.5918,578.6864 408.4528,579.0857 Z" />
			<path style="fill:#000000;" d="M 420.9107,580.566 C 419.2398,580.566 417.9135,581.2475 416.9388,582.6032 415.9715,583.9626 415.4878,585.8276 415.4878,588.2019 415.4878,590.5689 415.9715,592.4339 416.9388,593.8006 417.9061,595.16 419.2288,595.8378 420.9107,595.8378 422.5705,595.8378 423.8859,595.1563 424.8532,593.786 425.8278,592.4193 426.3188,590.5579 426.3188,588.2019 426.3188,585.8569 425.8278,584.0029 424.8532,582.6326 423.8859,581.2549 422.5705,580.566 420.9107,580.566 Z M 420.9107,577.8839 C 423.6147,577.8839 425.7399,578.8 427.2861,580.6247 428.8397,582.442 429.6165,584.9702 429.6165,588.2019 429.6165,591.419 428.8397,593.9435 427.2861,595.7792 425.7399,597.6076 423.6147,598.5199 420.9107,598.5199 418.1846,598.5199 416.0484,597.6076 414.5059,595.7792 412.9706,593.9435 412.2048,591.419 412.2048,588.2019 412.2048,584.9702 412.9706,582.442 414.5059,580.6247 416.0484,578.8 418.1846,577.8839 420.9107,577.8839 Z" />
			<path style="fill:#000000;" d="M 446.1341,581.3135 C 445.7823,581.101 445.3939,580.9434 444.9762,580.8445 444.5658,580.7492 444.1115,580.6979 443.6132,580.6979 441.8544,580.6979 440.4987,581.2988 439.5534,582.5007 438.6154,583.6951 438.1464,585.4099 438.1464,587.645 L 438.1464,598.0509 435.01,598.0509 435.01,578.3529 438.1464,578.3529 438.1464,581.3575 C 438.7986,580.185 439.6487,579.3166 440.6966,578.7487 441.7518,578.1734 443.0306,577.8839 444.5365,577.8839 444.749,577.8839 444.9835,577.9059 445.24,577.9426 445.5038,577.9719 445.7896,578.0122 446.1047,578.0598 Z" />
			<path style="fill:#000000;" d="M 459.2661,581.3135 C 458.9143,581.101 458.5259,580.9434 458.1082,580.8445 457.6978,580.7492 457.2435,580.6979 456.7452,580.6979 454.9864,580.6979 453.6307,581.2988 452.6854,582.5007 451.7474,583.6951 451.2784,585.4099 451.2784,587.645 L 451.2784,598.0509 448.142,598.0509 448.142,578.3529 451.2784,578.3529 451.2784,581.3575 C 451.9306,580.185 452.7807,579.3166 453.8286,578.7487 454.8838,578.1734 456.1626,577.8839 457.6685,577.8839 457.881,577.8839 458.1155,577.9059 458.372,577.9426 458.6358,577.9719 458.9216,578.0122 459.2367,578.0598 Z" />
			<path style="fill:#000000;" d="M 477.6303,587.6303 L 477.6303,589.2425 463.2965,589.2425 C 463.4321,591.3933 464.077,593.0312 465.2312,594.1524 466.3927,595.2772 468.0048,595.8378 470.0677,595.8378 471.2695,595.8378 472.431,595.6913 473.5559,595.3982 474.6771,595.105 475.791,594.6653 476.8975,594.0791 L 476.8975,597.0397 C 475.7837,597.5196 474.6331,597.8861 473.4533,598.1389 472.2808,598.3917 471.0863,598.5199 469.8772,598.5199 466.858,598.5199 464.4617,597.6076 462.6956,595.7792 460.9259,593.9545 460.0428,591.4849 460.0428,588.3778 460.0428,585.1534 460.8782,582.5996 462.5491,580.7126 464.2272,578.8293 466.4916,577.8839 469.3349,577.8839 471.8924,577.8839 473.915,578.7596 475.4026,580.5074 476.8865,582.2588 477.6303,584.6331 477.6303,587.6303 Z M 474.5086,586.7949 C 474.4866,584.9006 474.0102,583.391 473.0722,582.2662 472.1416,581.134 470.9105,580.566 469.3789,580.566 467.6384,580.566 466.2461,581.1156 465.2018,582.2075 464.1539,583.2921 463.553,584.8237 463.3991,586.7949 Z" />
			<path style="fill:#000000;" d="M 498.75,586.1647 L 498.75,598.0509 495.6282,598.0509 495.6282,586.2233 C 495.6282,584.3473 495.2765,582.9477 494.573,582.017 493.8768,581.09 492.8289,580.6247 491.4219,580.6247 489.7401,580.6247 488.41,581.1889 487.4354,582.3101 486.4681,583.424 485.9844,584.9446 485.9844,586.8682 L 485.9844,598.0509 482.848,598.0509 482.848,578.3529 485.9844,578.3529 485.9844,581.3428 C 486.7245,580.1813 487.6003,579.3166 488.6079,578.7487 489.6228,578.1734 490.7953,577.8839 492.1254,577.8839 494.3018,577.8839 495.9507,578.5874 497.0645,579.9944 498.1857,581.3941 498.75,583.4496 498.75,586.1647 Z" />
			<path style="fill:#000000;" d="M 507.6317,573.1939 L 507.6317,578.3529 514.0511,578.3529 514.0511,580.8152 507.6317,580.8152 507.6317,591.6022 C 507.6317,593.2144 507.8405,594.255 508.2619,594.724 508.6796,595.1856 509.5407,595.4128 510.8414,595.4128 L 514.0511,595.4128 514.0511,598.0509 510.8414,598.0509 C 508.4378,598.0509 506.7743,597.5893 505.8583,596.6586 504.9496,595.7206 504.4952,594.0168 504.4952,591.5436 L 504.4952,580.8152 502.2089,580.8152 502.2089,578.3529 504.4952,578.3529 504.4952,573.1939 Z" />
			<path style="fill:#000000;" d="M 534.8483,587.6303 L 534.8483,589.2425 520.5145,589.2425 C 520.6501,591.3933 521.295,593.0312 522.4492,594.1524 523.6107,595.2772 525.2228,595.8378 527.2857,595.8378 528.4875,595.8378 529.649,595.6913 530.7739,595.3982 531.8951,595.105 533.009,594.6653 534.1155,594.0791 L 534.1155,597.0397 C 533.0017,597.5196 531.8511,597.8861 530.6713,598.1389 529.4988,598.3917 528.3043,598.5199 527.0952,598.5199 524.076,598.5199 521.6797,597.6076 519.9136,595.7792 518.1439,593.9545 517.2608,591.4849 517.2608,588.3778 517.2608,585.1534 518.0962,582.5996 519.7671,580.7126 521.4452,578.8293 523.7096,577.8839 526.5529,577.8839 529.1104,577.8839 531.133,578.7596 532.6206,580.5074 534.1045,582.2588 534.8483,584.6331 534.8483,587.6303 Z M 531.7266,586.7949 C 531.7046,584.9006 531.2282,583.391 530.2902,582.2662 529.3596,581.134 528.1285,580.566 526.5969,580.566 524.8564,580.566 523.4641,581.1156 522.4198,582.2075 521.3719,583.2921 520.771,584.8237 520.6171,586.7949 Z" />
		</g>
		<g>
			<path style="fill:#000000;" d="M 567.6783,587.6303 L 567.6783,589.2425 553.3445,589.2425 C 553.4801,591.3933 554.125,593.0312 555.2792,594.1524 556.4407,595.2772 558.0528,595.8378 560.1157,595.8378 561.3175,595.8378 562.479,595.6913 563.6039,595.3982 564.7251,595.105 565.839,594.6653 566.9455,594.0791 L 566.9455,597.0397 C 565.8317,597.5196 564.6811,597.8861 563.5013,598.1389 562.3288,598.3917 561.1343,598.5199 559.9252,598.5199 556.906,598.5199 554.5097,597.6076 552.7436,595.7792 550.9739,593.9545 550.0908,591.4849 550.0908,588.3778 550.0908,585.1534 550.9262,582.5996 552.5971,580.7126 554.2752,578.8293 556.5396,577.8839 559.3829,577.8839 561.9404,577.8839 563.963,578.7596 565.4506,580.5074 566.9345,582.2588 567.6783,584.6331 567.6783,587.6303 Z M 564.5566,586.7949 C 564.5346,584.9006 564.0582,583.391 563.1202,582.2662 562.1896,581.134 560.9585,580.566 559.4269,580.566 557.6864,580.566 556.2941,581.1156 555.2498,582.2075 554.2019,583.2921 553.601,584.8237 553.4471,586.7949 Z" />
			<path style="fill:#000000;" d="M 573.0132,570.8489 L 576.135,570.8489 576.135,598.0509 573.0132,598.0509 Z" />
			<path style="fill:#000000;" d="M 598.6323,587.6303 L 598.6323,589.2425 584.2985,589.2425 C 584.4341,591.3933 585.079,593.0312 586.2332,594.1524 587.3947,595.2772 589.0068,595.8378 591.0697,595.8378 592.2715,595.8378 593.433,595.6913 594.5579,595.3982 595.6791,595.105 596.793,594.6653 597.8995,594.0791 L 597.8995,597.0397 C 596.7857,597.5196 595.6351,597.8861 594.4553,598.1389 593.2828,598.3917 592.0883,598.5199 590.8792,598.5199 587.86,598.5199 585.4637,597.6076 583.6976,595.7792 581.9279,593.9545 581.0448,591.4849 581.0448,588.3778 581.0448,585.1534 581.8802,582.5996 583.5511,580.7126 585.2292,578.8293 587.4936,577.8839 590.3369,577.8839 592.8944,577.8839 594.917,578.7596 596.4046,580.5074 597.8885,582.2588 598.6323,584.6331 598.6323,587.6303 Z M 595.5106,586.7949 C 595.4886,584.9006 595.0122,583.391 594.0742,582.2662 593.1436,581.134 591.9125,580.566 590.3809,580.566 588.6404,580.566 587.2481,581.1156 586.2038,582.2075 585.1559,583.2921 584.555,584.8237 584.4011,586.7949 Z M 592.506,569.9109 L 595.8916,569.9109 590.3662,576.4769 587.7721,576.4769 Z" />
			<path style="fill:#000000;" d="M 607.0597,573.1939 L 607.0597,578.3529 613.4791,578.3529 613.4791,580.8152 607.0597,580.8152 607.0597,591.6022 C 607.0597,593.2144 607.2685,594.255 607.6899,594.724 608.1076,595.1856 608.9687,595.4128 610.2694,595.4128 L 613.4791,595.4128 613.4791,598.0509 610.2694,598.0509 C 607.8658,598.0509 606.2023,597.5893 605.2863,596.6586 604.3776,595.7206 603.9232,594.0168 603.9232,591.5436 L 603.9232,580.8152 601.6369,580.8152 601.6369,578.3529 603.9232,578.3529 603.9232,573.1939 Z" />
			<path style="fill:#000000;" d="M 629.0441,581.3135 C 628.6923,581.101 628.3039,580.9434 627.8862,580.8445 627.4758,580.7492 627.0215,580.6979 626.5232,580.6979 624.7644,580.6979 623.4087,581.2988 622.4634,582.5007 621.5254,583.6951 621.0564,585.4099 621.0564,587.645 L 621.0564,598.0509 617.92,598.0509 617.92,578.3529 621.0564,578.3529 621.0564,581.3575 C 621.7086,580.185 622.5587,579.3166 623.6066,578.7487 624.6618,578.1734 625.9406,577.8839 627.4465,577.8839 627.659,577.8839 627.8935,577.9059 628.15,577.9426 628.4138,577.9719 628.6996,578.0122 629.0147,578.0598 Z" />
			<path style="fill:#000000;" d="M 632.1072,578.3529 L 635.229,578.3529 635.229,598.0509 632.1072,598.0509 Z M 632.1072,570.8489 L 635.229,570.8489 635.229,574.8647 632.1072,574.8647 Z" />
			<path style="fill:#000000;" d="M 655.1468,579.0857 L 655.1468,582.0903 C 654.2675,581.5846 653.3808,581.2036 652.4941,580.9471 651.6037,580.6943 650.7097,580.566 649.812,580.566 647.7894,580.566 646.2139,581.2366 645.0927,582.5739 643.9788,583.915 643.4218,585.791 643.4218,588.2019 643.4218,590.6166 643.9788,592.4926 645.0927,593.8299 646.2139,595.171 647.7894,595.8378 649.812,595.8378 650.7097,595.8378 651.6037,595.7169 652.4941,595.4714 653.3808,595.2186 654.2675,594.8339 655.1468,594.3136 L 655.1468,597.2888 C 654.2748,597.6992 653.3734,598.007 652.4354,598.2122 651.5048,598.4173 650.5191,598.5199 649.4749,598.5199 646.6096,598.5199 644.3379,597.5929 642.6597,595.7352 640.9779,593.8702 640.1388,591.3604 640.1388,588.2019 640.1388,584.9995 640.9889,582.4787 642.689,580.6393 644.3892,578.8036 646.7195,577.8839 649.6801,577.8839 650.6364,577.8839 651.5707,577.9865 652.4794,578.1917 653.3954,578.3896 654.2858,578.6864 655.1468,579.0857 Z" />
			<path style="fill:#000000;" d="M 668.8797,588.3338 C 666.3589,588.3338 664.6075,588.627 663.6328,589.2132 662.6655,589.7995 662.1818,590.8034 662.1818,592.2177 662.1818,593.3426 662.5409,594.2366 663.2664,594.8998 663.9992,595.5557 664.9885,595.8818 666.2416,595.8818 667.9711,595.8818 669.3561,595.2626 670.404,594.0205 671.4483,592.771 671.9722,591.1112 671.9722,589.0373 L 671.9722,588.3338 Z M 675.094,586.8096 L 675.094,598.0509 671.9722,598.0509 671.9722,595.105 C 671.2577,596.2702 670.3674,597.1276 669.3048,597.6845 668.2495,598.2415 666.9525,598.5199 665.4209,598.5199 663.4753,598.5199 661.9254,597.9703 660.7748,596.8638 659.6317,595.7609 659.0601,594.2806 659.0601,592.4229 659.0601,590.2465 659.7709,588.6086 661.1999,587.5131 662.6362,586.4102 664.7687,585.8569 667.6047,585.8569 L 671.9722,585.8569 671.9722,585.5198 C 671.9722,583.937 671.4959,582.7168 670.5506,581.8558 669.6126,580.9984 668.2935,580.566 666.5934,580.566 665.5088,580.566 664.4462,580.7126 663.413,581.0057 662.387,581.2915 661.3977,581.7165 660.4524,582.2808 L 660.4524,579.2177 C 661.5956,578.7706 662.7021,578.4372 663.7794,578.221 664.8529,577.9975 665.8972,577.8839 666.9158,577.8839 669.6602,577.8839 671.7084,578.6241 673.0568,580.097 674.4125,581.5736 675.094,583.8124 675.094,586.8096 Z" />
		</g>
	</g>
	<g>
		<path style="fill:#000000;" d="M 369.775,631.6101 L 378.9058,631.6101 378.9058,634.4388 369.775,634.4388 Z" />
		<g>
			<path style="fill:#000000;" d="M 398.1788,639.9642 L 410.1383,639.9642 410.1383,642.8808 394.0604,642.8808 394.0604,639.9642 C 395.3575,638.6158 397.1272,636.8131 399.366,634.5561 401.612,632.2917 403.0227,630.8297 403.6016,630.1738 404.7045,628.9537 405.4703,627.9168 405.9027,627.0667 406.3423,626.2166 406.5622,625.3776 406.5622,624.5458 406.5622,623.2085 406.0859,622.1202 405.1405,621.2775 404.2025,620.4274 402.9751,620.0024 401.4618,620.0024 400.3846,620.0024 399.2524,620.1893 398.0616,620.5593 396.8671,620.9331 395.592,621.4973 394.2363,622.2595 L 394.2363,618.7859 C 395.614,618.2217 396.8964,617.7966 398.0909,617.5108 399.2927,617.2287 400.3919,617.0858 401.3885,617.0858 404.0047,617.0858 406.0932,617.7417 407.6467,619.0497 409.2076,620.3615 409.9917,622.1092 409.9917,624.2967 409.9917,625.3446 409.7939,626.3302 409.4055,627.2572 409.0244,628.1879 408.3136,629.2871 407.2803,630.5549 406.9945,630.8773 406.0968,631.8263 404.5836,633.3982 403.0777,634.9628 400.9415,637.1502 398.1788,639.9642 Z" />
			<path style="fill:#000000;" d="M 420.6908,639.9642 L 432.6503,639.9642 432.6503,642.8808 416.5724,642.8808 416.5724,639.9642 C 417.8695,638.6158 419.6392,636.8131 421.878,634.5561 424.124,632.2917 425.5347,630.8297 426.1136,630.1738 427.2165,628.9537 427.9823,627.9168 428.4147,627.0667 428.8543,626.2166 429.0742,625.3776 429.0742,624.5458 429.0742,623.2085 428.5979,622.1202 427.6525,621.2775 426.7145,620.4274 425.4871,620.0024 423.9738,620.0024 422.8966,620.0024 421.7644,620.1893 420.5736,620.5593 419.3791,620.9331 418.104,621.4973 416.7483,622.2595 L 416.7483,618.7859 C 418.126,618.2217 419.4084,617.7966 420.6029,617.5108 421.8047,617.2287 422.9039,617.0858 423.9005,617.0858 426.5167,617.0858 428.6052,617.7417 430.1587,619.0497 431.7196,620.3615 432.5037,622.1092 432.5037,624.2967 432.5037,625.3446 432.3059,626.3302 431.9175,627.2572 431.5364,628.1879 430.8256,629.2871 429.7923,630.5549 429.5065,630.8773 428.6088,631.8263 427.0956,633.3982 425.5897,634.9628 423.4535,637.1502 420.6908,639.9642 Z" />
			<path style="fill:#000000;" d="M 447.585,619.8265 C 445.8153,619.8265 444.4852,620.6912 443.5985,622.4207 442.7192,624.1501 442.2795,626.7516 442.2795,630.2178 442.2795,633.6877 442.7192,636.2855 443.5985,638.0149 444.4852,639.737 445.8153,640.5944 447.585,640.5944 449.3511,640.5944 450.6812,639.737 451.5715,638.0149 452.4582,636.2855 452.9052,633.6877 452.9052,630.2178 452.9052,626.7516 452.4582,624.1501 451.5715,622.4207 450.6812,620.6912 449.3511,619.8265 447.585,619.8265 Z M 447.585,617.0858 C 450.4173,617.0858 452.5828,618.2107 454.0777,620.4567 455.5727,622.6955 456.3202,625.9492 456.3202,630.2178 456.3202,634.4901 455.5727,637.7475 454.0777,639.9935 452.5828,642.2323 450.4173,643.3498 447.585,643.3498 444.749,643.3498 442.5799,642.2323 441.0777,639.9935 439.5827,637.7475 438.8352,634.4901 438.8352,630.2178 438.8352,625.9492 439.5827,622.6955 441.0777,620.4567 442.5799,618.2107 444.749,617.0858 447.585,617.0858 Z" />
		</g>
		<path style="fill:#000000;" d="M 480.2538,642.8808 L 470.5953,617.5548 474.1568,617.5548 482.1738,638.8796 490.2054,617.5548 493.7669,617.5548 484.1231,642.8808 Z" />
	</g>
	<g>
		<path style="fill:#000000;" d="M 369.775,721.2699 L 378.9058,721.2699 378.9058,724.0985 369.775,724.0985 Z" />
		<g>
			<path style="fill:#000000;" d="M 408.4528,713.5754 L 408.4528,716.5799 C 407.5735,716.0742 406.6868,715.6932 405.8001,715.4367 404.9097,715.1839 404.0157,715.0556 403.118,715.0556 401.0954,715.0556 399.5199,715.7262 398.3987,717.0635 397.2848,718.4046 396.7278,720.2806 396.7278,722.6915 396.7278,725.1062 397.2848,726.9822 398.3987,728.3195 399.5199,729.6606 401.0954,730.3274 403.118,730.3274 404.0157,730.3274 404.9097,730.2065 405.8001,729.961 406.6868,729.7082 407.5735,729.3235 408.4528,728.8032 L 408.4528,731.7784 C 407.5808,732.1888 406.6794,732.4966 405.7414,732.7018 404.8108,732.9069 403.8251,733.0095 402.7809,733.0095 399.9156,733.0095 397.6439,732.0825 395.9657,730.2249 394.2839,728.3598 393.4448,725.85 393.4448,722.6915 393.4448,719.4891 394.2949,716.9683 395.995,715.1289 397.6952,713.2932 400.0255,712.3735 402.9861,712.3735 403.9424,712.3735 404.8767,712.4761 405.7854,712.6813 406.7014,712.8792 407.5918,713.176 408.4528,713.5754 Z" />
			<path style="fill:#000000;" d="M 420.9107,715.0556 C 419.2398,715.0556 417.9135,715.7371 416.9388,717.0929 415.9715,718.4522 415.4878,720.3172 415.4878,722.6915 415.4878,725.0585 415.9715,726.9235 416.9388,728.2902 417.9061,729.6496 419.2288,730.3274 420.9107,730.3274 422.5705,730.3274 423.8859,729.6459 424.8532,728.2756 425.8278,726.9089 426.3188,725.0475 426.3188,722.6915 426.3188,720.3465 425.8278,718.4925 424.8532,717.1222 423.8859,715.7445 422.5705,715.0556 420.9107,715.0556 Z M 420.9107,712.3735 C 423.6147,712.3735 425.7399,713.2896 427.2861,715.1143 428.8397,716.9316 429.6165,719.4598 429.6165,722.6915 429.6165,725.9086 428.8397,728.4331 427.2861,730.2688 425.7399,732.0972 423.6147,733.0095 420.9107,733.0095 418.1846,733.0095 416.0484,732.0972 414.5059,730.2688 412.9706,728.4331 412.2048,725.9086 412.2048,722.6915 412.2048,719.4598 412.9706,716.9316 414.5059,715.1143 416.0484,713.2896 418.1846,712.3735 420.9107,712.3735 Z" />
			<path style="fill:#000000;" d="M 450.912,720.6543 L 450.912,732.5405 447.7902,732.5405 447.7902,720.7129 C 447.7902,718.8369 447.4385,717.4373 446.735,716.5066 446.0388,715.5796 444.9909,715.1143 443.5839,715.1143 441.9021,715.1143 440.572,715.6785 439.5974,716.7997 438.6301,717.9136 438.1464,719.4342 438.1464,721.3578 L 438.1464,732.5405 435.01,732.5405 435.01,712.8425 438.1464,712.8425 438.1464,715.8324 C 438.8865,714.6709 439.7623,713.8062 440.7699,713.2383 441.7848,712.663 442.9573,712.3735 444.2874,712.3735 446.4638,712.3735 448.1127,713.077 449.2265,714.484 450.3477,715.8837 450.912,717.9392 450.912,720.6543 Z" />
			<path style="fill:#000000;" d="M 468.8073,713.3995 L 468.8073,716.4333 C 467.9279,715.957 467.0082,715.5979 466.0519,715.3634 465.1029,715.1289 464.1209,715.0117 463.106,715.0117 461.5598,715.0117 460.3983,715.2608 459.6178,715.7591 458.8447,716.2501 458.46,716.9866 458.46,717.9722 458.46,718.727 458.7384,719.3169 459.2954,719.7456 459.8523,720.178 460.9662,720.581 462.637,720.9621 L 463.7069,721.2113 C 465.9127,721.7096 467.4809,722.4094 468.4116,723.3071 469.3496,724.1975 469.8186,725.4469 469.8186,727.0591 469.8186,728.8985 469.1187,730.3494 467.7227,731.412 466.334,732.4782 464.4177,733.0095 461.9775,733.0095 460.9589,733.0095 459.8999,732.9069 458.7971,732.7018 457.6905,732.5076 456.529,732.2108 455.3089,731.8077 L 455.3089,728.4954 C 456.4594,729.111 457.5952,729.58 458.7091,729.9024 459.8303,730.2175 460.9405,730.3714 462.0361,730.3714 463.509,730.3714 464.6449,730.1076 465.4363,729.58 466.2278,729.0524 466.6235,728.3159 466.6235,727.3669 466.6235,726.4875 466.334,725.8133 465.7588,725.3443 465.1908,724.8753 463.9414,724.421 462.0068,723.9813 L 460.9222,723.7321 C 458.9876,723.3034 457.5879,722.6549 456.7305,721.7829 455.8805,720.9035 455.4554,719.709 455.4554,718.1921 455.4554,716.3271 456.0857,714.8907 457.3461,713.8831 458.6139,712.8792 460.4129,712.3735 462.7396,712.3735 463.8901,712.3735 464.9747,712.4615 465.9933,712.6374 467.0082,712.8059 467.9462,713.0587 468.8073,713.3995 Z" />
			<path style="fill:#000000;" d="M 474.2008,724.7434 L 474.2008,712.8425 477.3226,712.8425 477.3226,724.6701 C 477.3226,726.5278 477.667,727.9238 478.3632,728.8618 479.0667,729.7925 480.1219,730.2542 481.5289,730.2542 483.207,730.2542 484.5371,729.6972 485.5154,728.5834 486.49,727.4695 486.981,725.9562 486.981,724.0399 L 486.981,712.8425 490.1028,712.8425 490.1028,732.5405 486.981,732.5405 486.981,729.536 C 486.2262,730.7195 485.3469,731.5952 484.3429,732.1595 483.3463,732.7237 482.1884,733.0095 480.8694,733.0095 478.6783,733.0095 477.0184,732.3134 475.8862,730.9137 474.7614,729.5067 474.2008,727.4512 474.2008,724.7434 Z" />
			<path style="fill:#000000;" d="M 510.8707,716.5213 C 511.6512,715.1069 512.5855,714.059 513.6701,713.3848 514.7546,712.7106 516.0334,712.3735 517.51,712.3735 519.4813,712.3735 521.0055,713.0917 522.0827,714.528 523.1563,715.9643 523.6949,718.0089 523.6949,720.6543 L 523.6949,732.5405 520.5585,732.5405 520.5585,720.7129 C 520.5585,718.8186 520.2361,717.4116 519.5912,716.4919 518.9463,715.5759 517.9643,715.1143 516.6453,715.1143 515.0221,715.1143 513.7433,715.6785 512.8053,716.7997 511.8673,717.9136 511.3983,719.4342 511.3983,721.3578 L 511.3983,732.5405 508.2619,732.5405 508.2619,720.7129 C 508.2619,718.8076 507.9395,717.4006 507.2946,716.4919 506.657,715.5759 505.6677,715.1143 504.3194,715.1143 502.7255,715.1143 501.4614,715.6785 500.5234,716.7997 499.5854,717.9246 499.1164,719.4452 499.1164,721.3578 L 499.1164,732.5405 495.98,732.5405 495.98,712.8425 499.1164,712.8425 499.1164,715.8324 C 499.8272,714.6526 500.6773,713.7805 501.6666,713.2236 502.6632,712.6593 503.843,712.3735 505.2134,712.3735 506.5911,712.3735 507.7636,712.7326 508.7309,713.4434 509.6982,714.1469 510.409,715.1729 510.8707,716.5213 Z" />
			<path style="fill:#000000;" d="M 537.2227,715.0556 C 535.5518,715.0556 534.2255,715.7371 533.2508,717.0929 532.2835,718.4522 531.7998,720.3172 531.7998,722.6915 531.7998,725.0585 532.2835,726.9235 533.2508,728.2902 534.2181,729.6496 535.5408,730.3274 537.2227,730.3274 538.8825,730.3274 540.1979,729.6459 541.1652,728.2756 542.1398,726.9089 542.6308,725.0475 542.6308,722.6915 542.6308,720.3465 542.1398,718.4925 541.1652,717.1222 540.1979,715.7445 538.8825,715.0556 537.2227,715.0556 Z M 537.2227,712.3735 C 539.9267,712.3735 542.0519,713.2896 543.5981,715.1143 545.1517,716.9316 545.9285,719.4598 545.9285,722.6915 545.9285,725.9086 545.1517,728.4331 543.5981,730.2688 542.0519,732.0972 539.9267,733.0095 537.2227,733.0095 534.4966,733.0095 532.3604,732.0972 530.8179,730.2688 529.2826,728.4331 528.5168,725.9086 528.5168,722.6915 528.5168,719.4598 529.2826,716.9316 530.8179,715.1143 532.3604,713.2896 534.4966,712.3735 537.2227,712.3735 Z" />
		</g>
		<g>
			<path style="fill:#000000;" d="M 575.1823,715.7738 L 575.1823,705.3385 578.3041,705.3385 578.3041,732.5405 575.1823,732.5405 575.1823,729.6093 C 574.5265,730.7635 573.7021,731.6172 572.7054,732.1741 571.7088,732.7311 570.507,733.0095 569.1,733.0095 566.8136,733.0095 564.945,732.0642 563.5013,730.1662 562.065,728.2719 561.3468,725.7803 561.3468,722.6915 561.3468,719.5954 562.065,717.1038 563.5013,715.2169 564.945,713.3225 566.8136,712.3735 569.1,712.3735 570.507,712.3735 571.7088,712.652 572.7054,713.2089 573.7021,713.7586 574.5265,714.6123 575.1823,715.7738 Z M 564.5566,722.6915 C 564.5566,725.0878 565.0256,726.9675 565.9636,728.3342 566.9089,729.6936 568.2096,730.3714 569.8621,730.3714 571.511,730.3714 572.8117,729.6936 573.7607,728.3342 574.706,726.9675 575.1823,725.0878 575.1823,722.6915 575.1823,720.2989 574.706,718.4229 573.7607,717.0635 572.8117,715.6968 571.511,715.0117 569.8621,715.0117 568.2096,715.0117 566.9089,715.6968 565.9636,717.0635 565.0256,718.4229 564.5566,720.2989 564.5566,722.6915 Z" />
			<path style="fill:#000000;" d="M 600.5083,722.1199 L 600.5083,723.7321 586.1745,723.7321 C 586.3101,725.8829 586.955,727.5208 588.1092,728.642 589.2707,729.7668 590.8828,730.3274 592.9457,730.3274 594.1475,730.3274 595.309,730.1809 596.4339,729.8878 597.5551,729.5946 598.669,729.1549 599.7755,728.5687 L 599.7755,731.5293 C 598.6617,732.0092 597.5111,732.3757 596.3313,732.6285 595.1588,732.8813 593.9643,733.0095 592.7552,733.0095 589.736,733.0095 587.3397,732.0972 585.5736,730.2688 583.8039,728.4441 582.9208,725.9745 582.9208,722.8674 582.9208,719.643 583.7562,717.0892 585.4271,715.2022 587.1052,713.3189 589.3696,712.3735 592.2129,712.3735 594.7704,712.3735 596.793,713.2492 598.2806,714.997 599.7645,716.7484 600.5083,719.1227 600.5083,722.1199 Z M 597.3866,721.2845 C 597.3646,719.3902 596.8882,717.8806 595.9502,716.7558 595.0196,715.6236 593.7885,715.0556 592.2569,715.0556 590.5164,715.0556 589.1241,715.6052 588.0798,716.6971 587.0319,717.7817 586.431,719.3133 586.2771,721.2845 Z" />
		</g>
		<g>
			<path style="fill:#000000;" d="M 614.8715,712.8425 L 618.1691,712.8425 624.1049,729.3748 630.026,712.8425 633.3383,712.8425 626.2154,732.5405 621.9797,732.5405 Z" />
			<path style="fill:#000000;" d="M 646.3677,722.8234 C 643.8469,722.8234 642.0955,723.1166 641.1208,723.7028 640.1535,724.2891 639.6698,725.293 639.6698,726.7074 639.6698,727.8322 640.0289,728.7262 640.7544,729.3894 641.4872,730.0453 642.4765,730.3714 643.7296,730.3714 645.4591,730.3714 646.8441,729.7522 647.892,728.5101 648.9363,727.2606 649.4602,725.6008 649.4602,723.5269 L 649.4602,722.8234 Z M 652.582,721.2992 L 652.582,732.5405 649.4602,732.5405 649.4602,729.5946 C 648.7457,730.7598 647.8554,731.6172 646.7928,732.1741 645.7375,732.7311 644.4405,733.0095 642.9089,733.0095 640.9633,733.0095 639.4134,732.4599 638.2628,731.3534 637.1197,730.2505 636.5481,728.7702 636.5481,726.9125 636.5481,724.7361 637.2589,723.0982 638.6879,722.0027 640.1242,720.8998 642.2567,720.3465 645.0927,720.3465 L 649.4602,720.3465 649.4602,720.0094 C 649.4602,718.4266 648.9839,717.2064 648.0386,716.3454 647.1006,715.488 645.7815,715.0556 644.0814,715.0556 642.9968,715.0556 641.9342,715.2022 640.901,715.4953 639.875,715.7811 638.8857,716.2061 637.9404,716.7704 L 637.9404,713.7073 C 639.0836,713.2602 640.1901,712.9268 641.2674,712.7106 642.3409,712.4871 643.3852,712.3735 644.4038,712.3735 647.1482,712.3735 649.1964,713.1137 650.5448,714.5866 651.9005,716.0632 652.582,718.302 652.582,721.2992 Z" />
			<path style="fill:#000000;" d="M 662.3284,729.6093 L 662.3284,740.0445 659.192,740.0445 659.192,712.8425 662.3284,712.8425 662.3284,715.7738 C 662.9806,714.6123 663.8087,713.7586 664.8053,713.2089 665.8093,712.652 667.0074,712.3735 668.3961,712.3735 670.7008,712.3735 672.5731,713.3225 674.0094,715.2169 675.4531,717.1038 676.1786,719.5954 676.1786,722.6915 676.1786,725.7803 675.4531,728.2719 674.0094,730.1662 672.5731,732.0642 670.7008,733.0095 668.3961,733.0095 667.0074,733.0095 665.8093,732.7311 664.8053,732.1741 663.8087,731.6172 662.9806,730.7635 662.3284,729.6093 Z M 672.9395,722.6915 C 672.9395,720.2989 672.4632,718.4229 671.5179,717.0635 670.5799,715.6968 669.2828,715.0117 667.634,715.0117 665.9815,715.0117 664.6807,715.6968 663.7354,717.0635 662.7974,718.4229 662.3284,720.2989 662.3284,722.6915 662.3284,725.0878 662.7974,726.9675 663.7354,728.3342 664.6807,729.6936 665.9815,730.3714 667.634,730.3714 669.2828,730.3714 670.5799,729.6936 671.5179,728.3342 672.4632,726.9675 672.9395,725.0878 672.9395,722.6915 Z" />
			<path style="fill:#000000;" d="M 688.2407,715.0556 C 686.5698,715.0556 685.2435,715.7371 684.2688,717.0929 683.3015,718.4522 682.8178,720.3172 682.8178,722.6915 682.8178,725.0585 683.3015,726.9235 684.2688,728.2902 685.2361,729.6496 686.5588,730.3274 688.2407,730.3274 689.9005,730.3274 691.2159,729.6459 692.1832,728.2756 693.1578,726.9089 693.6488,725.0475 693.6488,722.6915 693.6488,720.3465 693.1578,718.4925 692.1832,717.1222 691.2159,715.7445 689.9005,715.0556 688.2407,715.0556 Z M 688.2407,712.3735 C 690.9447,712.3735 693.0699,713.2896 694.6161,715.1143 696.1697,716.9316 696.9465,719.4598 696.9465,722.6915 696.9465,725.9086 696.1697,728.4331 694.6161,730.2688 693.0699,732.0972 690.9447,733.0095 688.2407,733.0095 685.5146,733.0095 683.3784,732.0972 681.8359,730.2688 680.3006,728.4331 679.5348,725.9086 679.5348,722.6915 679.5348,719.4598 680.3006,716.9316 681.8359,715.1143 683.3784,713.2896 685.5146,712.3735 688.2407,712.3735 Z" />
			<path style="fill:#000000;" d="M 713.4641,715.8031 C 713.1123,715.5906 712.7239,715.433 712.3062,715.3341 711.8958,715.2388 711.4415,715.1875 710.9432,715.1875 709.1844,715.1875 707.8287,715.7884 706.8834,716.9903 705.9454,718.1847 705.4764,719.8995 705.4764,722.1346 L 705.4764,732.5405 702.34,732.5405 702.34,712.8425 705.4764,712.8425 705.4764,715.8471 C 706.1286,714.6746 706.9787,713.8062 708.0266,713.2383 709.0818,712.663 710.3606,712.3735 711.8665,712.3735 712.079,712.3735 712.3135,712.3955 712.57,712.4322 712.8338,712.4615 713.1196,712.5018 713.4347,712.5494 Z" />
		</g>
	</g>
	<path style="fill:#00ff00;" d="M 1091.0904,342.1324 L 1332.7952,342.1324 1332.7952,553.7506 C 1284.4542,518.4867 1260.2838,518.4867 1211.9428,553.7506 1163.6019,589.0497 1139.4314,589.0497 1091.0904,553.7506 L 1091.0904,342.1324" />
	<path style="stroke:#000000;stroke-width:3.6056;stroke-miterlimit:4.0;fill:none;" d="M 1091.09,342.1324 L 1330.8636,342.1324 1330.8636,553.7506 C 1282.9089,518.4867 1258.9315,518.4867 1210.9768,553.7506 1163.0221,589.0497 1139.0447,589.0497 1091.09,553.7506 L 1091.09,342.1324" />
	<g>
		<g>
			<path style="fill:#000000;" d="M 1098.2381,363.8395 L 1104.8481,363.8395 1113.2314,386.1903 1121.6441,363.8395 1128.2688,363.8395 1128.2688,396.6695 1123.9305,396.6695 1123.9305,367.8407 1115.4739,390.3673 1111.0037,390.3673 1102.547,367.8407 1102.547,396.6695 1098.2381,396.6695 Z" />
			<path style="fill:#000000;" d="M 1157.5813,382.9659 L 1157.5813,384.8273 1138.9825,384.8273 C 1139.1584,387.7109 1139.9938,389.9093 1141.4887,391.4226 1142.991,392.9395 1145.0868,393.6943 1147.7762,393.6943 1149.3298,393.6943 1150.8321,393.4964 1152.2904,393.0934 1153.745,392.694 1155.1923,392.1041 1156.6286,391.32 L 1156.6286,395.2332 C 1155.1813,395.8488 1153.6974,396.3251 1152.1731,396.6549 1150.6489,396.9773 1149.099,397.1385 1147.5271,397.1385 1143.5992,397.1385 1140.4847,396.021 1138.191,393.7822 1135.9047,391.5472 1134.7615,388.517 1134.7615,384.6954 1134.7615,380.7492 1135.846,377.6164 1138.0152,375.3007 1140.1916,372.9777 1143.1302,371.8125 1146.8236,371.8125 1150.1359,371.8125 1152.752,372.8165 1154.6793,374.8171 1156.6139,376.8213 1157.5813,379.5364 1157.5813,382.9659 Z M 1153.5361,381.6615 C 1153.5068,379.7196 1152.8839,378.166 1151.6748,377.0008 1150.462,375.8393 1148.8608,375.2567 1146.8675,375.2567 1144.6105,375.2567 1142.8004,375.821 1141.4447,376.9422 1140.0964,378.0671 1139.3196,379.639 1139.1144,381.6615 Z" />
			<path style="fill:#000000;" d="M 1180.8554,376.1361 L 1180.8554,361.9635 1184.9005,361.9635 1184.9005,396.6695 1180.8554,396.6695 1180.8554,392.8149 C 1180.0053,394.2806 1178.9281,395.3724 1177.631,396.0833 1176.3413,396.7868 1174.7877,397.1385 1172.9703,397.1385 1169.9878,397.1385 1167.5658,395.977 1165.7008,393.6503 1163.8322,391.3273 1162.9015,388.2678 1162.9015,384.4755 1162.9015,380.6869 1163.8322,377.6274 1165.7008,375.3007 1167.5658,372.9777 1169.9878,371.8125 1172.9703,371.8125 1174.7877,371.8125 1176.3413,372.1716 1177.631,372.8824 1178.9281,373.5969 1180.0053,374.6815 1180.8554,376.1361 Z M 1167.0785,384.4755 C 1167.0785,387.3701 1167.6867,389.6345 1168.9105,391.276 1170.1307,392.9175 1171.8125,393.7383 1173.9523,393.7383 1176.0921,393.7383 1177.7776,392.9175 1179.0087,391.276 1180.2398,389.6345 1180.8554,387.3701 1180.8554,384.4755 1180.8554,381.5846 1180.2398,379.3165 1179.0087,377.675 1177.7776,376.0335 1176.0921,375.2128 1173.9523,375.2128 1171.8125,375.2128 1170.1307,376.0335 1168.9105,377.675 1167.6867,379.3165 1167.0785,381.5846 1167.0785,384.4755 Z" />
			<path style="fill:#000000;" d="M 1192.8002,372.2815 L 1196.8454,372.2815 1196.8454,396.6695 1192.8002,396.6695 Z M 1192.8002,361.9635 L 1196.8454,361.9635 1196.8454,367.0932 1192.8002,367.0932 Z" />
			<path style="fill:#000000;" d="M 1222.7136,373.3514 L 1222.7136,377.0888 C 1221.5704,376.4842 1220.4199,376.0299 1219.2694,375.7257 1218.1152,375.4143 1216.9537,375.2567 1215.7812,375.2567 1213.1614,375.2567 1211.1242,376.0628 1209.6696,377.675 1208.2223,379.2872 1207.5004,381.5553 1207.5004,384.4755 1207.5004,387.3994 1208.2223,389.6638 1209.6696,391.276 1211.1242,392.8882 1213.1614,393.6943 1215.7812,393.6943 1216.9537,393.6943 1218.1152,393.5441 1219.2694,393.24 1220.4199,392.9395 1221.5704,392.4778 1222.7136,391.8623 L 1222.7136,395.541 C 1221.5778,396.0686 1220.4053,396.4643 1219.1961,396.7281 1217.9943,396.9993 1216.7082,397.1385 1215.3415,397.1385 1211.6372,397.1385 1208.6913,396.0027 1206.5038,393.7236 1204.3237,391.4372 1203.2355,388.3558 1203.2355,384.4755 1203.2355,380.5403 1204.3347,377.4479 1206.5331,375.1981 1208.7389,372.9411 1211.7654,371.8125 1215.6054,371.8125 1216.8548,371.8125 1218.0713,371.9408 1219.2548,372.1936 1220.4456,372.4501 1221.5998,372.8348 1222.7136,373.3514 Z M 1216.9977,396.4936 C 1217.7965,397.3913 1218.3937,398.2231 1218.7858,398.9852 1219.1851,399.7547 1219.3867,400.4875 1219.3867,401.1836 1219.3867,402.4807 1218.947,403.459 1218.0676,404.1149 1217.1882,404.7781 1215.8838,405.1115 1214.1544,405.1115 1213.4802,405.1115 1212.8243,405.0676 1212.1904,404.9796 1211.5529,404.8917 1210.919,404.7598 1210.2851,404.5839 L 1210.2851,401.7113 C 1210.7834,401.9531 1211.3001,402.129 1211.8387,402.2389 1212.3846,402.3452 1213.0039,402.4001 1213.7,402.4001 1214.5574,402.4001 1215.2096,402.2242 1215.6493,401.8725 1216.089,401.5207 1216.3089,401.0114 1216.3089,400.3482 1216.3089,399.9159 1216.1513,399.3846 1215.8399,398.7507 1215.5247,398.1242 1215.0374,397.373 1214.3742,396.4936 Z" />
			<path style="fill:#000000;" d="M 1240.5649,383.9039 C 1237.3003,383.9039 1235.0395,384.2923 1233.7791,385.0618 1232.5187,385.8239 1231.8884,387.1246 1231.8884,388.9603 1231.8884,390.426 1232.3574,391.5911 1233.2954,392.4485 1234.2408,393.3096 1235.5305,393.7383 1237.1647,393.7383 1239.3998,393.7383 1241.1988,392.9285 1242.5582,391.3053 1243.9139,389.6858 1244.5954,387.524 1244.5954,384.8273 L 1244.5954,383.9039 Z M 1248.6405,382.834 L 1248.6405,396.6695 1244.5954,396.6695 1244.5954,392.727 C 1243.6647,394.2439 1242.5142,395.3578 1241.1365,396.0686 1239.7589,396.7794 1238.0734,397.1385 1236.0801,397.1385 1233.5593,397.1385 1231.555,396.4204 1230.0711,394.9841 1228.5835,393.5477 1227.8433,391.6278 1227.8433,389.2241 1227.8433,386.4101 1228.7667,384.2923 1230.6134,382.8633 1232.4674,381.438 1235.2374,380.7235 1238.9234,380.7235 L 1244.5954,380.7235 1244.5954,380.3718 C 1244.5954,378.7523 1243.9799,377.4955 1242.7487,376.6051 1241.5249,375.7074 1239.8102,375.2567 1237.6044,375.2567 1236.1974,375.2567 1234.8234,375.4106 1233.486,375.7111 1232.1559,376.0042 1230.8772,376.4439 1229.646,377.0301 L 1229.646,373.542 C 1231.119,372.9667 1232.5516,372.538 1233.9403,372.2522 1235.3363,371.9591 1236.6957,371.8125 1238.0148,371.8125 1241.5799,371.8125 1244.2437,372.7285 1246.0024,374.5532 1247.7612,376.3706 1248.6405,379.1333 1248.6405,382.834 Z M 1238.1027,366.1112 L 1236.8569,364.7922 C 1236.5345,364.4697 1236.2487,364.2316 1236.0069,364.074 1235.7614,363.9201 1235.5452,363.8395 1235.362,363.8395 1234.805,363.8395 1234.3947,364.1326 1234.1309,364.7189 1233.867,365.3051 1233.7205,366.2651 1233.6912,367.5915 L 1230.9358,367.5915 C 1230.9651,365.492 1231.3498,363.8762 1232.0936,362.7403 1232.8448,361.6081 1233.889,361.0402 1235.2301,361.0402 1235.787,361.0402 1236.3,361.1538 1236.769,361.3773 1237.238,361.6044 1237.74,361.9855 1238.2786,362.5205 L 1239.539,363.8249 C 1239.8614,364.1583 1240.1399,364.4038 1240.3744,364.5577 1240.6162,364.7042 1240.8361,364.7775 1241.0339,364.7775 1241.5909,364.7775 1242.0013,364.4844 1242.2651,363.8981 1242.5289,363.3119 1242.6754,362.3592 1242.7048,361.0402 L 1245.4455,361.0402 C 1245.4162,363.1324 1245.0241,364.7482 1244.273,365.8914 1243.5292,367.0273 1242.4922,367.5915 1241.1659,367.5915 1240.6089,367.5915 1240.0959,367.4816 1239.6269,367.2544 1239.1579,367.0199 1238.6486,366.6389 1238.1027,366.1112 Z" />
			<path style="fill:#000000;" d="M 1266.1254,375.2567 C 1263.9563,375.2567 1262.2415,376.0775 1260.9811,377.719 1259.7207,379.3605 1259.0904,381.6139 1259.0904,384.4755 1259.0904,387.3408 1259.7133,389.5906 1260.9664,391.2321 1262.2159,392.8736 1263.9343,393.6943 1266.1254,393.6943 1268.2726,393.6943 1269.98,392.8699 1271.2405,391.2174 1272.5009,389.5686 1273.1311,387.3188 1273.1311,384.4755 1273.1311,381.6432 1272.5009,379.4008 1271.2405,377.7483 1269.98,376.0885 1268.2726,375.2567 1266.1254,375.2567 Z M 1266.1254,371.8125 C 1269.6429,371.8125 1272.402,372.9337 1274.4062,375.1688 1276.4178,377.4075 1277.4254,380.511 1277.4254,384.4755 1277.4254,388.4254 1276.4178,391.5215 1274.4062,393.7676 1272.402,396.0173 1269.6429,397.1385 1266.1254,397.1385 1262.586,397.1385 1259.8159,396.0173 1257.8154,393.7676 1255.8221,391.5215 1254.8255,388.4254 1254.8255,384.4755 1254.8255,380.511 1255.8221,377.4075 1257.8154,375.1688 1259.8159,372.9337 1262.586,371.8125 1266.1254,371.8125 Z" />
			<path style="fill:#000000;" d="M 1284.8122,391.0562 L 1289.4582,391.0562 1289.4582,396.6695 1284.8122,396.6695 Z M 1284.8122,373.2342 L 1289.4582,373.2342 1289.4582,378.8475 1284.8122,378.8475 Z" />
		</g>
	</g>
	<g>
		<path style="fill:#000000;" d="M 1096.0104,427.5613 L 1107.8673,427.5613 1107.8673,431.1814 1096.0104,431.1814 Z" />
		<g>
			<path style="fill:#000000;" d="M 1143.819,426.1103 C 1144.7644,426.4328 1145.6877,427.1216 1146.5891,428.1769 1147.4978,429.2321 1148.4064,430.6831 1149.3151,432.5298 L 1153.8146,441.4994 1149.0513,441.4994 1144.845,432.9548 C 1143.7604,430.727 1142.7088,429.2541 1141.6939,428.5286 1140.6753,427.7958 1139.2903,427.4294 1137.5315,427.4294 L 1132.6949,427.4294 1132.6949,441.4994 1128.2541,441.4994 1128.2541,408.6694 1138.279,408.6694 C 1142.031,408.6694 1144.8303,409.4572 1146.677,411.029 1148.5237,412.6046 1149.447,414.9679 1149.447,418.1227 1149.447,420.1965 1148.9634,421.915 1147.9961,423.2817 1147.0361,424.641 1145.6437,425.5827 1143.819,426.1103 Z M 1132.6949,412.3335 L 1132.6949,423.7653 1138.279,423.7653 C 1140.4188,423.7653 1142.031,423.2817 1143.1155,422.3144 1144.2074,421.3397 1144.757,419.9107 1144.757,418.0347 1144.757,416.1514 1144.2074,414.7297 1143.1155,413.7698 1142.031,412.8134 1140.4188,412.3335 1138.279,412.3335 Z" />
			<path style="fill:#000000;" d="M 1166.6974,420.0866 C 1164.5283,420.0866 1162.8135,420.9074 1161.5531,422.5489 1160.2927,424.1904 1159.6624,426.4438 1159.6624,429.3054 1159.6624,432.1707 1160.2853,434.4204 1161.5384,436.0619 1162.7879,437.7034 1164.5063,438.5242 1166.6974,438.5242 1168.8446,438.5242 1170.552,437.6998 1171.8125,436.0473 1173.0729,434.3984 1173.7031,432.1487 1173.7031,429.3054 1173.7031,426.4731 1173.0729,424.2307 1171.8125,422.5782 1170.552,420.9184 1168.8446,420.0866 1166.6974,420.0866 Z M 1166.6974,416.6424 C 1170.2149,416.6424 1172.974,417.7636 1174.9782,419.9987 1176.9898,422.2374 1177.9974,425.3409 1177.9974,429.3054 1177.9974,433.2552 1176.9898,436.3514 1174.9782,438.5975 1172.974,440.8472 1170.2149,441.9684 1166.6974,441.9684 1163.158,441.9684 1160.3879,440.8472 1158.3874,438.5975 1156.3941,436.3514 1155.3975,433.2552 1155.3975,429.3054 1155.3975,425.3409 1156.3941,422.2374 1158.3874,419.9987 1160.3879,417.7636 1163.158,416.6424 1166.6974,416.6424 Z" />
			<path style="fill:#000000;" d="M 1188.3594,409.6074 L 1188.3594,417.1114 1196.6841,417.1114 1196.6841,420.2771 1188.3594,420.2771 1188.3594,433.4385 C 1188.3594,435.4244 1188.6305,436.6995 1189.1801,437.2637 1189.7261,437.8207 1190.8436,438.0991 1192.5364,438.0991 L 1196.6841,438.0991 1196.6841,441.4994 1192.5364,441.4994 C 1189.4073,441.4994 1187.2492,440.9278 1186.0584,439.7846 1184.8749,438.6341 1184.2849,436.5309 1184.2849,433.4824 L 1184.2849,420.2771 1181.3244,420.2771 1181.3244,417.1114 1184.2849,417.1114 1184.2849,409.6074 Z" />
			<path style="fill:#000000;" d="M 1213.3629,428.7338 C 1210.0983,428.7338 1207.8375,429.1222 1206.5771,429.8916 1205.3167,430.6538 1204.6864,431.9545 1204.6864,433.7902 1204.6864,435.2558 1205.1554,436.421 1206.0934,437.2784 1207.0388,438.1394 1208.3285,438.5681 1209.9627,438.5681 1212.1978,438.5681 1213.9968,437.7584 1215.3562,436.1352 1216.7119,434.5157 1217.3934,432.3539 1217.3934,429.6571 L 1217.3934,428.7338 Z M 1221.4385,427.6639 L 1221.4385,441.4994 1217.3934,441.4994 1217.3934,437.5569 C 1216.4627,439.0738 1215.3122,440.1877 1213.9345,440.8985 1212.5569,441.6093 1210.8714,441.9684 1208.8781,441.9684 1206.3573,441.9684 1204.353,441.2502 1202.8691,439.8139 1201.3815,438.3776 1200.6413,436.4576 1200.6413,434.054 1200.6413,431.24 1201.5647,429.1222 1203.4114,427.6932 1205.2654,426.2679 1208.0354,425.5534 1211.7214,425.5534 L 1217.3934,425.5534 1217.3934,425.2016 C 1217.3934,423.5821 1216.7779,422.3254 1215.5467,421.435 1214.3229,420.5373 1212.6082,420.0866 1210.4024,420.0866 1208.9954,420.0866 1207.6214,420.2405 1206.284,420.541 1204.9539,420.8341 1203.6752,421.2738 1202.444,421.86 L 1202.444,418.3718 C 1203.917,417.7966 1205.3496,417.3679 1206.7383,417.0821 1208.1343,416.789 1209.4937,416.6424 1210.8128,416.6424 1214.3779,416.6424 1217.0417,417.5584 1218.8004,419.3831 1220.5592,421.2005 1221.4385,423.9632 1221.4385,427.6639 Z" />
			<path style="fill:#000000;" d="M 1247.1016,418.1813 L 1247.1016,421.9186 C 1245.9584,421.3141 1244.8079,420.8597 1243.6574,420.5556 1242.5032,420.2442 1241.3417,420.0866 1240.1692,420.0866 1237.5494,420.0866 1235.5122,420.8927 1234.0576,422.5049 1232.6103,424.1171 1231.8884,426.3851 1231.8884,429.3054 1231.8884,432.2293 1232.6103,434.4937 1234.0576,436.1059 1235.5122,437.7181 1237.5494,438.5242 1240.1692,438.5242 1241.3417,438.5242 1242.5032,438.3739 1243.6574,438.0698 1244.8079,437.7694 1245.9584,437.3077 1247.1016,436.6921 L 1247.1016,440.3709 C 1245.9658,440.8985 1244.7933,441.2942 1243.5841,441.558 1242.3823,441.8292 1241.0962,441.9684 1239.7295,441.9684 1236.0252,441.9684 1233.0793,440.8325 1230.8918,438.5535 1228.7117,436.2671 1227.6235,433.1856 1227.6235,429.3054 1227.6235,425.3702 1228.7227,422.2777 1230.9211,420.028 1233.1269,417.7709 1236.1534,416.6424 1239.9934,416.6424 1241.2428,416.6424 1242.4593,416.7706 1243.6428,417.0235 1244.8336,417.2799 1245.9878,417.6647 1247.1016,418.1813 Z M 1241.3857,441.3235 C 1242.1845,442.2212 1242.7817,443.053 1243.1738,443.8151 1243.5731,444.5845 1243.7747,445.3173 1243.7747,446.0135 1243.7747,447.3106 1243.335,448.2889 1242.4556,448.9448 1241.5762,449.608 1240.2718,449.9414 1238.5424,449.9414 1237.8682,449.9414 1237.2123,449.8974 1236.5784,449.8095 1235.9409,449.7215 1235.307,449.5896 1234.6731,449.4138 L 1234.6731,446.5411 C 1235.1714,446.783 1235.6881,446.9588 1236.2267,447.0688 1236.7726,447.175 1237.3919,447.23 1238.088,447.23 1238.9454,447.23 1239.5976,447.0541 1240.0373,446.7024 1240.477,446.3506 1240.6969,445.8413 1240.6969,445.1781 1240.6969,444.7457 1240.5393,444.2145 1240.2279,443.5806 1239.9127,442.954 1239.4254,442.2029 1238.7622,441.3235 Z" />
			<path style="fill:#000000;" d="M 1264.9529,428.7338 C 1261.6883,428.7338 1259.4275,429.1222 1258.1671,429.8916 1256.9067,430.6538 1256.2764,431.9545 1256.2764,433.7902 1256.2764,435.2558 1256.7454,436.421 1257.6834,437.2784 1258.6288,438.1394 1259.9185,438.5681 1261.5527,438.5681 1263.7878,438.5681 1265.5868,437.7584 1266.9462,436.1352 1268.3019,434.5157 1268.9834,432.3539 1268.9834,429.6571 L 1268.9834,428.7338 Z M 1273.0285,427.6639 L 1273.0285,441.4994 1268.9834,441.4994 1268.9834,437.5569 C 1268.0527,439.0738 1266.9022,440.1877 1265.5245,440.8985 1264.1469,441.6093 1262.4614,441.9684 1260.4681,441.9684 1257.9473,441.9684 1255.943,441.2502 1254.4591,439.8139 1252.9715,438.3776 1252.2313,436.4576 1252.2313,434.054 1252.2313,431.24 1253.1547,429.1222 1255.0014,427.6932 1256.8554,426.2679 1259.6254,425.5534 1263.3114,425.5534 L 1268.9834,425.5534 1268.9834,425.2016 C 1268.9834,423.5821 1268.3679,422.3254 1267.1367,421.435 1265.9129,420.5373 1264.1982,420.0866 1261.9924,420.0866 1260.5854,420.0866 1259.2114,420.2405 1257.874,420.541 1256.5439,420.8341 1255.2652,421.2738 1254.034,421.86 L 1254.034,418.3718 C 1255.507,417.7966 1256.9396,417.3679 1258.3283,417.0821 1259.7243,416.789 1261.0837,416.6424 1262.4028,416.6424 1265.9679,416.6424 1268.6317,417.5584 1270.3904,419.3831 1272.1492,421.2005 1273.0285,423.9632 1273.0285,427.6639 Z M 1262.4907,410.9411 L 1261.2449,409.622 C 1260.9225,409.2996 1260.6367,409.0614 1260.3949,408.9039 1260.1494,408.75 1259.9332,408.6694 1259.75,408.6694 1259.193,408.6694 1258.7827,408.9625 1258.5189,409.5488 1258.255,410.135 1258.1085,411.095 1258.0792,412.4214 L 1255.3238,412.4214 C 1255.3531,410.3219 1255.7378,408.706 1256.4816,407.5702 1257.2328,406.438 1258.277,405.87 1259.6181,405.87 1260.175,405.87 1260.688,405.9836 1261.157,406.2071 1261.626,406.4343 1262.128,406.8154 1262.6666,407.3503 L 1263.927,408.6547 C 1264.2494,408.9882 1264.5279,409.2337 1264.7624,409.3875 1265.0042,409.5341 1265.2241,409.6074 1265.4219,409.6074 1265.9789,409.6074 1266.3893,409.3143 1266.6531,408.728 1266.9169,408.1418 1267.0634,407.1891 1267.0928,405.87 L 1269.8335,405.87 C 1269.8042,407.9622 1269.4121,409.5781 1268.661,410.7213 1267.9172,411.8571 1266.8802,412.4214 1265.5539,412.4214 1264.9969,412.4214 1264.4839,412.3115 1264.0149,412.0843 1263.5459,411.8498 1263.0366,411.4687 1262.4907,410.9411 Z" />
			<path style="fill:#000000;" d="M 1290.5134,420.0866 C 1288.3443,420.0866 1286.6295,420.9074 1285.3691,422.5489 1284.1087,424.1904 1283.4784,426.4438 1283.4784,429.3054 1283.4784,432.1707 1284.1013,434.4204 1285.3544,436.0619 1286.6039,437.7034 1288.3223,438.5242 1290.5134,438.5242 1292.6606,438.5242 1294.368,437.6998 1295.6285,436.0473 1296.8889,434.3984 1297.5191,432.1487 1297.5191,429.3054 1297.5191,426.4731 1296.8889,424.2307 1295.6285,422.5782 1294.368,420.9184 1292.6606,420.0866 1290.5134,420.0866 Z M 1290.5134,416.6424 C 1294.0309,416.6424 1296.79,417.7636 1298.7942,419.9987 1300.8058,422.2374 1301.8134,425.3409 1301.8134,429.3054 1301.8134,433.2552 1300.8058,436.3514 1298.7942,438.5975 1296.79,440.8472 1294.0309,441.9684 1290.5134,441.9684 1286.974,441.9684 1284.2039,440.8472 1282.2034,438.5975 1280.2101,436.3514 1279.2135,433.2552 1279.2135,429.3054 1279.2135,425.3409 1280.2101,422.2374 1282.2034,419.9987 1284.2039,417.7636 1286.974,416.6424 1290.5134,416.6424 Z" />
			<path style="fill:#000000;" d="M 1309.2002,418.064 L 1313.8462,418.064 1313.8462,423.6774 1309.2002,423.6774 Z M 1309.2002,436.2671 L 1313.8462,436.2671 1313.8462,440.0631 1310.2408,447.1274 1307.3974,447.1274 1309.2002,440.0631 Z" />
		</g>
	</g>
	<g>
		<path style="fill:#000000;" d="M 1096.0104,472.3912 L 1107.8673,472.3912 1107.8673,476.0113 1096.0104,476.0113 Z" />
		<g>
			<path style="fill:#000000;" d="M 1123.696,453.4993 L 1151.4696,453.4993 1151.4696,457.2513 1139.8179,457.2513 1139.8179,486.3293 1135.3477,486.3293 1135.3477,457.2513 1123.696,457.2513 Z" />
			<path style="fill:#000000;" d="M 1157.3174,464.9165 C 1155.1483,464.9165 1153.4335,465.7372 1152.1731,467.3787 1150.9127,469.0202 1150.2824,471.2736 1150.2824,474.1353 1150.2824,477.0006 1150.9053,479.2503 1152.1584,480.8918 1153.4079,482.5333 1155.1263,483.354 1157.3174,483.354 1159.4646,483.354 1161.172,482.5296 1162.4325,480.8771 1163.6929,479.2283 1164.3231,476.9786 1164.3231,474.1353 1164.3231,471.3029 1163.6929,469.0605 1162.4325,467.408 1161.172,465.7482 1159.4646,464.9165 1157.3174,464.9165 Z M 1157.3174,461.4723 C 1160.8349,461.4723 1163.594,462.5935 1165.5982,464.8285 1167.6098,467.0673 1168.6174,470.1707 1168.6174,474.1353 1168.6174,478.0851 1167.6098,481.1812 1165.5982,483.4273 1163.594,485.6771 1160.8349,486.7983 1157.3174,486.7983 1153.778,486.7983 1151.0079,485.6771 1149.0074,483.4273 1147.0141,481.1812 1146.0175,478.0851 1146.0175,474.1353 1146.0175,470.1707 1147.0141,467.0673 1149.0074,464.8285 1151.0079,462.5935 1153.778,461.4723 1157.3174,461.4723 Z" />
			<path style="fill:#000000;" d="M 1189.2388,465.8691 C 1188.7881,465.6053 1188.2934,465.4148 1187.7585,465.2975 1187.2199,465.173 1186.6299,465.107 1185.9851,465.107 1183.6987,465.107 1181.9436,465.8362 1180.7235,467.2908 1179.4997,468.7491 1178.8914,470.8449 1178.8914,473.5783 L 1178.8914,486.3293 1174.817,486.3293 1174.817,461.9413 1178.8914,461.9413 1178.8914,465.9131 C 1179.7415,464.4182 1180.8444,463.3043 1182.2038,462.5715 1183.5705,461.8387 1185.2266,461.4723 1187.1722,461.4723 1187.4544,461.4723 1187.7621,461.4869 1188.0956,461.5162 1188.4363,461.5455 1188.8137,461.5895 1189.2241,461.6481 Z" />
			<path style="fill:#000000;" d="M 1195.2185,474.1353 C 1195.2185,477.0299 1195.8267,479.2943 1197.0505,480.9358 1198.2707,482.5773 1199.9525,483.398 1202.0923,483.398 1204.2321,483.398 1205.9176,482.5773 1207.1487,480.9358 1208.3798,479.2943 1208.9954,477.0299 1208.9954,474.1353 1208.9954,471.2443 1208.3798,468.9763 1207.1487,467.3348 1205.9176,465.6933 1204.2321,464.8725 1202.0923,464.8725 1199.9525,464.8725 1198.2707,465.6933 1197.0505,467.3348 1195.8267,468.9763 1195.2185,471.2443 1195.2185,474.1353 Z M 1208.9954,482.4747 C 1208.1453,483.9403 1207.0681,485.0322 1205.771,485.743 1204.4813,486.4465 1202.9277,486.7983 1201.1103,486.7983 1198.1278,486.7983 1195.7058,485.6367 1193.8408,483.3101 1191.9722,480.9871 1191.0415,477.9276 1191.0415,474.1353 1191.0415,470.3466 1191.9722,467.2871 1193.8408,464.9604 1195.7058,462.6374 1198.1278,461.4723 1201.1103,461.4723 1202.9277,461.4723 1204.4813,461.8313 1205.771,462.5422 1207.0681,463.2567 1208.1453,464.3412 1208.9954,465.7959 L 1208.9954,461.9413 1213.0405,461.9413 1213.0405,495.7093 1208.9954,495.7093 Z" />
			<path style="fill:#000000;" d="M 1220.5152,476.5975 L 1220.5152,461.9413 1224.5603,461.9413 1224.5603,476.407 C 1224.5603,478.6934 1225.0147,480.4081 1225.9234,481.5513 1226.832,482.6945 1228.1951,483.2661 1230.0124,483.2661 1232.1999,483.2661 1233.9257,482.5882 1235.1861,481.2289 1236.4539,479.8622 1237.0914,478.0008 1237.0914,475.6449 L 1237.0914,461.9413 1241.1365,461.9413 1241.1365,486.3293 1237.0914,486.3293 1237.0914,482.3867 C 1236.1131,483.8817 1234.9736,484.9919 1233.6765,485.7137 1232.3758,486.4355 1230.8698,486.7983 1229.1624,486.7983 1226.3264,486.7983 1224.1793,485.9335 1222.7136,484.2041 1221.248,482.4673 1220.5152,479.9318 1220.5152,476.5975 Z" />
			<path style="fill:#000000;" d="M 1270.1413,472.6257 L 1270.1413,474.487 1251.5425,474.487 C 1251.7184,477.3706 1252.5538,479.5691 1254.0487,481.0823 1255.551,482.5992 1257.6468,483.354 1260.3362,483.354 1261.8898,483.354 1263.3921,483.1562 1264.8504,482.7531 1266.305,482.3537 1267.7523,481.7638 1269.1886,480.9797 L 1269.1886,484.8929 C 1267.7413,485.5085 1266.2574,485.9848 1264.7331,486.3146 1263.2089,486.637 1261.659,486.7983 1260.0871,486.7983 1256.1592,486.7983 1253.0447,485.6807 1250.751,483.442 1248.4647,481.2069 1247.3215,478.1767 1247.3215,474.3551 1247.3215,470.4089 1248.406,467.2761 1250.5752,464.9604 1252.7516,462.6374 1255.6902,461.4723 1259.3836,461.4723 1262.6959,461.4723 1265.312,462.4762 1267.2393,464.4768 1269.1739,466.481 1270.1413,469.1961 1270.1413,472.6257 Z M 1266.0961,471.3213 C 1266.0668,469.3793 1265.4439,467.8257 1264.2348,466.6606 1263.022,465.4991 1261.4208,464.9165 1259.4275,464.9165 1257.1705,464.9165 1255.3604,465.4807 1254.0047,466.6019 1252.6564,467.7268 1251.8796,469.2987 1251.6744,471.3213 Z" />
			<path style="fill:#000000;" d="M 1277.7918,480.7159 L 1282.4232,480.7159 1282.4232,486.3293 1277.7918,486.3293 Z" />
		</g>
	</g>
	<path style="fill:#d8e5e5;" d="M 876.5372,627.2114 C 876.5372,671.3834 840.7182,707.2054 796.55,707.2054 752.3819,707.2054 716.5629,671.3834 716.5629,627.2114 716.5629,583.0394 752.3819,547.2174 796.55,547.2174 840.7182,547.2174 876.5372,583.0394 876.5372,627.2114 Z" />
	<path style="stroke:#000000;stroke-width:6.8074;stroke-miterlimit:4.0;fill:none;" d="M 876.5372,627.2114 C 876.5372,671.3834 840.7182,707.2054 796.55,707.2054 752.3819,707.2054 716.5629,671.3834 716.5629,627.2114 716.5629,583.0394 752.3819,547.2174 796.55,547.2174 840.7182,547.2174 876.5372,583.0394 876.5372,627.2114 Z" />
	<path style="stroke:#000000;stroke-width:6.8074;stroke-miterlimit:4.0;fill:#000000;" d="M 796.55,547.2174 L 796.55,571.0454" />
	<path style="stroke:#000000;stroke-width:6.8074;stroke-miterlimit:4.0;fill:#000000;" d="M 836.5436,557.94 L 829.7362,569.7178" />
	<path style="stroke:#000000;stroke-width:6.8074;stroke-miterlimit:4.0;fill:#000000;" d="M 865.8155,587.2144 L 854.0387,594.0224" />
	<path style="stroke:#000000;stroke-width:6.8074;stroke-miterlimit:4.0;fill:#000000;" d="M 876.5372,627.2114 L 856.1149,627.2114" />
	<path style="stroke:#000000;stroke-width:6.8074;stroke-miterlimit:4.0;fill:#000000;" d="M 865.8155,667.2084 L 854.0387,660.4004" />
	<path style="stroke:#000000;stroke-width:6.8074;stroke-miterlimit:4.0;fill:#000000;" d="M 836.5436,696.4828 L 829.7362,684.6709" />
	<path style="stroke:#000000;stroke-width:6.8074;stroke-miterlimit:4.0;fill:#000000;" d="M 796.55,707.2054 L 796.55,686.7814" />
	<path style="stroke:#000000;stroke-width:6.8074;stroke-miterlimit:4.0;fill:#000000;" d="M 756.5565,696.4828 L 763.3639,684.6709" />
	<path style="stroke:#000000;stroke-width:6.8074;stroke-miterlimit:4.0;fill:#000000;" d="M 727.2846,667.2084 L 739.0614,660.4004" />
	<path style="stroke:#000000;stroke-width:6.8074;stroke-miterlimit:4.0;fill:#000000;" d="M 716.5629,627.2114 L 736.9852,627.2114" />
	<path style="stroke:#000000;stroke-width:6.8074;stroke-miterlimit:4.0;fill:#000000;" d="M 727.2846,587.2144 L 739.0614,594.0224" />
	<path style="stroke:#000000;stroke-width:6.8074;stroke-miterlimit:4.0;fill:#000000;" d="M 756.5565,557.94 L 763.3639,569.7178" />
	<path style="stroke:#00007f;stroke-width:6.8074;stroke-miterlimit:4.0;fill:#000000;" d="M 800.7366,666.9701 L 796.55,627.2114" />
	<path style="stroke:#00007f;stroke-width:6.8074;stroke-miterlimit:4.0;fill:#000000;" d="M 735.6918,607.4341 L 796.55,627.2114" />
	<path style="stroke:#ff0000;stroke-width:6.1267;stroke-miterlimit:4.0;fill:#000000;" d="M 836.5096,682.22 L 796.55,627.2114" />
	<path style="fill:#ff0000;" d="M 804.2084,627.2114 C 804.2084,631.4406 800.7789,634.8704 796.55,634.8704 792.3212,634.8704 788.8917,631.4406 788.8917,627.2114 788.8917,622.9822 792.3212,619.5524 796.55,619.5524 800.7789,619.5524 804.2084,622.9822 804.2084,627.2114 Z" />
	<g>
		<g>
			<path style="fill:#000000;" d="M 950.6325,231.7308 L 954.7802,231.7308 960.0125,245.7861 965.2741,231.7308 969.4071,231.7308 969.4071,252.3668 966.6957,252.3668 966.6957,234.2516 961.4048,248.4096 958.6201,248.4096 953.3292,234.2516 953.3292,252.3668 950.6325,252.3668 Z" />
			<path style="fill:#000000;" d="M 980.883,238.5899 C 979.5236,238.5899 978.45,239.1102 977.6586,240.1435 976.8745,241.1804 976.4861,242.5984 976.4861,244.3938 976.4861,246.1818 976.8745,247.5962 977.6586,248.6294 978.439,249.6664 979.5126,250.183 980.883,250.183 982.2313,250.183 983.2939,249.6664 984.078,248.6294 984.8695,247.5962 985.2652,246.1818 985.2652,244.3938 985.2652,242.6057 984.8695,241.195 984.078,240.1581 983.2939,239.1139 982.2313,238.5899 980.883,238.5899 Z M 980.883,236.4208 C 983.0814,236.4208 984.8035,237.1316 986.0566,238.5459 987.3171,239.9529 987.9473,241.9022 987.9473,244.3938 987.9473,246.878 987.3171,248.8273 986.0566,250.2416 984.8035,251.6596 983.0814,252.3668 980.883,252.3668 978.6735,252.3668 976.9441,251.6596 975.6947,250.2416 974.4415,248.8273 973.8187,246.878 973.8187,244.3938 973.8187,241.9022 974.4415,239.9529 975.6947,238.5459 976.9441,237.1316 978.6735,236.4208 980.883,236.4208 Z" />
			<path style="fill:#000000;" d="M 994.3081,232.1998 L 994.3081,236.4208 999.5111,236.4208 999.5111,238.414 994.3081,238.414 994.3081,247.1345 C 994.3081,248.4535 994.4766,249.2999 994.8211,249.67 995.1618,250.0438 995.8617,250.227 996.9169,250.227 L 999.5111,250.227 999.5111,252.3668 996.9169,252.3668 C 994.9603,252.3668 993.6119,251.993 992.8718,251.2382 992.128,250.4761 991.7579,249.0984 991.7579,247.1052 L 991.7579,238.414 989.9112,238.414 989.9112,236.4208 991.7579,236.4208 991.7579,232.1998 Z" />
			<path style="fill:#000000;" d="M 1009.023,238.5899 C 1007.6636,238.5899 1006.59,239.1102 1005.7986,240.1435 1005.0145,241.1804 1004.6261,242.5984 1004.6261,244.3938 1004.6261,246.1818 1005.0145,247.5962 1005.7986,248.6294 1006.579,249.6664 1007.6526,250.183 1009.023,250.183 1010.3713,250.183 1011.4339,249.6664 1012.218,248.6294 1013.0095,247.5962 1013.4052,246.1818 1013.4052,244.3938 1013.4052,242.6057 1013.0095,241.195 1012.218,240.1581 1011.4339,239.1139 1010.3713,238.5899 1009.023,238.5899 Z M 1009.023,236.4208 C 1011.2214,236.4208 1012.9435,237.1316 1014.1966,238.5459 1015.4571,239.9529 1016.0873,241.9022 1016.0873,244.3938 1016.0873,246.878 1015.4571,248.8273 1014.1966,250.2416 1012.9435,251.6596 1011.2214,252.3668 1009.023,252.3668 1006.8135,252.3668 1005.0841,251.6596 1003.8347,250.2416 1002.5815,248.8273 1001.9587,246.878 1001.9587,244.3938 1001.9587,241.9022 1002.5815,239.9529 1003.8347,238.5459 1005.0841,237.1316 1006.8135,236.4208 1009.023,236.4208 Z" />
			<path style="fill:#000000;" d="M 1028.8529,239.1761 C 1028.5671,239.0113 1028.2593,238.8903 1027.9295,238.8097 1027.5961,238.7328 1027.2297,238.6925 1026.8303,238.6925 1025.394,238.6925 1024.2948,239.1688 1023.5327,240.1141 1022.7705,241.0521 1022.3895,242.4005 1022.3895,244.1593 L 1022.3895,252.3668 1019.8393,252.3668 1019.8393,236.4208 1022.3895,236.4208 1022.3895,239.2055 C 1022.9171,238.2675 1023.6059,237.5713 1024.456,237.1096 1025.3134,236.6516 1026.3503,236.4208 1027.5631,236.4208 1027.739,236.4208 1027.9295,236.4208 1028.1347,236.4208 1028.3472,236.4208 1028.5817,236.4208 1028.8382,236.4208 Z" />
		</g>
		<path style="fill:#000000;" d="M 1047.5689,244.0567 C 1045.5244,244.0567 1044.11,244.2985 1043.3186,244.7748 1042.5345,245.2548 1042.1461,246.0719 1042.1461,247.2224 1042.1461,248.1421 1042.4392,248.8713 1043.0255,249.4062 1043.619,249.9448 1044.4251,250.2123 1045.4438,250.2123 1046.8398,250.2123 1047.9646,249.7067 1048.8147,248.688 1049.6648,247.6731 1050.0898,246.3211 1050.0898,244.6283 L 1050.0898,244.0567 Z M 1052.6107,243.4851 L 1052.6107,252.3668 1050.0898,252.3668 1050.0898,249.5821 C 1049.5109,250.5311 1048.789,251.2346 1047.9207,251.6926 1047.0596,252.1433 1046.008,252.3668 1044.7696,252.3668 1043.194,252.3668 1041.9409,251.9198 1041.0029,251.0184 1040.0722,250.1097 1039.6106,248.9042 1039.6106,247.3983 1039.6106,245.6212 1040.1895,244.2875 1041.3547,243.3971 1042.5162,242.4994 1044.2456,242.0488 1046.543,242.0488 L 1050.0898,242.0488 1050.0898,241.8289 C 1050.0898,240.803 1049.7014,240.0079 1048.9319,239.44 1048.1698,238.8757 1047.0999,238.5899 1045.7222,238.5899 1044.8428,238.5899 1043.9818,238.6852 1043.1427,238.8684 1042.311,239.0552 1041.5085,239.3337 1040.7391,239.7038 L 1040.7391,237.5053 C 1041.6661,237.1463 1042.5638,236.8751 1043.4358,236.6992 1044.3042,236.516 1045.1506,236.4208 1045.9714,236.4208 1048.1991,236.4208 1049.8589,237.007 1050.9545,238.1795 1052.0574,239.3447 1052.6107,241.1108 1052.6107,243.4851 Z" />
	</g>
	<g>
		<g>
			<path style="fill:#000000;" d="M 955.9234,280.6061 L 948.0969,259.9701 950.9989,259.9701 957.4916,277.3377 964.0136,259.9701 966.9009,259.9701 959.0745,280.6061 Z" />
			<path style="fill:#000000;" d="M 975.3429,272.296 C 973.2984,272.296 971.884,272.5378 971.0926,273.0141 970.3085,273.4941 969.9201,274.3112 969.9201,275.4617 969.9201,276.3814 970.2132,277.1105 970.7995,277.6455 971.393,278.1841 972.1991,278.4516 973.2178,278.4516 974.6138,278.4516 975.7386,277.9459 976.5887,276.9273 977.4388,275.9124 977.8638,274.5604 977.8638,272.8676 L 977.8638,272.296 Z M 980.3847,271.7244 L 980.3847,280.6061 977.8638,280.6061 977.8638,277.8214 C 977.2849,278.7704 976.563,279.4739 975.6947,279.9319 974.8336,280.3825 973.782,280.6061 972.5436,280.6061 970.968,280.6061 969.7149,280.159 968.7769,279.2577 967.8462,278.349 967.3846,277.1435 967.3846,275.6376 967.3846,273.8605 967.9635,272.5268 969.1287,271.6364 970.2902,270.7387 972.0196,270.2881 974.317,270.2881 L 977.8638,270.2881 977.8638,270.0682 C 977.8638,269.0423 977.4754,268.2472 976.7059,267.6792 975.9438,267.115 974.8739,266.8292 973.4962,266.8292 972.6168,266.8292 971.7558,266.9244 970.9167,267.1076 970.085,267.2945 969.2825,267.573 968.5131,267.9431 L 968.5131,265.7446 C 969.4401,265.3855 970.3378,265.1144 971.2098,264.9385 972.0782,264.7553 972.9246,264.6601 973.7454,264.6601 975.9731,264.6601 977.6329,265.2463 978.7285,266.4188 979.8314,267.584 980.3847,269.3501 980.3847,271.7244 Z" />
			<path style="fill:#000000;" d="M 987.6835,277.88 L 987.6835,286.2341 985.1333,286.2341 985.1333,264.6601 987.6835,264.6601 987.6835,267.3715 C 988.2111,266.4554 988.878,265.7739 989.6914,265.3342 990.5011,264.8872 991.4684,264.6601 992.5933,264.6601 994.4693,264.6601 995.9862,265.3929 997.1514,266.8585 998.3239,268.3168 998.9102,270.2404 998.9102,272.6331 998.9102,275.0184 998.3239,276.942 997.1514,278.4076 995.9862,279.8732 994.4693,280.6061 992.5933,280.6061 991.4684,280.6061 990.5011,280.3825 989.6914,279.9319 988.878,279.4739 988.2111,278.7887 987.6835,277.88 Z M 996.2867,272.6331 C 996.2867,270.8157 995.8983,269.3904 995.1288,268.3534 994.3667,267.3202 993.3151,266.7999 991.9778,266.7999 990.6367,266.7999 989.5888,267.3202 988.8267,268.3534 988.0645,269.3904 987.6835,270.8157 987.6835,272.6331 987.6835,274.4431 988.0645,275.8648 988.8267,276.898 989.5888,277.935 990.6367,278.4516 991.9778,278.4516 993.3151,278.4516 994.3667,277.935 995.1288,276.898 995.8983,275.8648 996.2867,274.4431 996.2867,272.6331 Z" />
			<path style="fill:#000000;" d="M 1009.023,266.8292 C 1007.6636,266.8292 1006.59,267.3495 1005.7986,268.3827 1005.0145,269.4197 1004.6261,270.8377 1004.6261,272.6331 1004.6261,274.4211 1005.0145,275.8354 1005.7986,276.8687 1006.579,277.9056 1007.6526,278.4223 1009.023,278.4223 1010.3713,278.4223 1011.4339,277.9056 1012.218,276.8687 1013.0095,275.8354 1013.4052,274.4211 1013.4052,272.6331 1013.4052,270.845 1013.0095,269.4343 1012.218,268.3974 1011.4339,267.3531 1010.3713,266.8292 1009.023,266.8292 Z M 1009.023,264.6601 C 1011.2214,264.6601 1012.9435,265.3709 1014.1966,266.7852 1015.4571,268.1922 1016.0873,270.1415 1016.0873,272.6331 1016.0873,275.1173 1015.4571,277.0666 1014.1966,278.4809 1012.9435,279.8989 1011.2214,280.6061 1009.023,280.6061 1006.8135,280.6061 1005.0841,279.8989 1003.8347,278.4809 1002.5815,277.0666 1001.9587,275.1173 1001.9587,272.6331 1001.9587,270.1415 1002.5815,268.1922 1003.8347,266.7852 1005.0841,265.3709 1006.8135,264.6601 1009.023,264.6601 Z" />
			<path style="fill:#000000;" d="M 1028.8529,267.4154 C 1028.5671,267.2505 1028.2593,267.1296 1027.9295,267.049 1027.5961,266.9721 1027.2297,266.9318 1026.8303,266.9318 1025.394,266.9318 1024.2948,267.4081 1023.5327,268.3534 1022.7705,269.2914 1022.3895,270.6398 1022.3895,272.3986 L 1022.3895,280.6061 1019.8393,280.6061 1019.8393,264.6601 1022.3895,264.6601 1022.3895,267.4447 C 1022.9171,266.5067 1023.6059,265.8106 1024.456,265.3489 1025.3134,264.8909 1026.3503,264.6601 1027.5631,264.6601 1027.739,264.6601 1027.9295,264.6601 1028.1347,264.6601 1028.3472,264.6601 1028.5817,264.6601 1028.8382,264.6601 Z" />
		</g>
	</g>
	<path style="stroke:#000000;stroke-width:5.4688;stroke-miterlimit:4.0;fill:none;" d="M 323.6956,743.1656 L 323.6956,793.9963 301.8204,799.6441 345.5708,810.9399 301.8204,822.2356 345.5708,833.5313 301.8204,844.827 345.5708,856.1227 323.6956,861.7706 323.6956,912.6013" />
	<path style="stroke:#000000;stroke-width:5.4688;stroke-miterlimit:4.0;fill:none;" d="M 197.9132,742.9891 L 197.9132,793.8198 176.038,799.4676 219.7884,810.7634 176.038,822.0591 219.7884,833.3548 176.038,844.6505 219.7884,855.9462 197.9132,861.5941 197.9132,912.4248" />
	<path style="fill:#00ff00;" d="M 160.9988,910.8363 L 160.9988,944.3705 359.2428,944.3705 359.2428,910.8363 160.9988,910.8363 Z" />
	<path style="fill:#00ff00;" d="M 160.9988,910.8363 C 159.4889,910.8363 158.2644,912.4171 158.2644,914.3662" />
	<path style="fill:#00ff00;" d="M 361.9772,914.3662 C 361.9772,912.4171 360.7527,910.8363 359.2428,910.8363" />
	<path style="fill:#00ff00;" d="M 158.2644,914.3662 L 158.2644,940.8406 361.9772,940.8406 361.9772,914.3662 158.2644,914.3662 Z" />
	<path style="fill:#00ff00;" d="M 158.2644,940.8406 C 158.2644,942.7898 159.4889,944.3705 160.9988,944.3705" />
	<path style="fill:#00ff00;" d="M 359.2428,944.3705 C 360.7527,944.3705 361.9772,942.7898 361.9772,940.8406" />
	<path style="stroke-linejoin:round;stroke:#000000;stroke-width:2.7344;stroke-miterlimit:4.0;fill:#000000;" d="M 160.9988,910.8363 L 359.2428,910.8363" />
	<path style="stroke-linejoin:round;stroke:#000000;stroke-width:2.7344;stroke-miterlimit:4.0;fill:#000000;" d="M 160.9988,944.3705 L 359.2428,944.3705" />
	<path style="stroke-linejoin:round;stroke:#000000;stroke-width:2.7344;stroke-miterlimit:4.0;fill:none;" d="M 160.9988,910.8363 C 159.4889,910.8363 158.2644,912.4171 158.2644,914.3662" />
	<path style="stroke-linejoin:round;stroke:#000000;stroke-width:2.7344;stroke-miterlimit:4.0;fill:none;" d="M 361.9772,914.3662 C 361.9772,912.4171 360.7527,910.8363 359.2428,910.8363" />
	<path style="stroke-linejoin:round;stroke:#000000;stroke-width:2.7344;stroke-miterlimit:4.0;fill:#000000;" d="M 158.2644,914.3662 L 158.2644,940.8406" />
	<path style="stroke-linejoin:round;stroke:#000000;stroke-width:2.7344;stroke-miterlimit:4.0;fill:#000000;" d="M 361.9772,914.3662 L 361.9772,940.8406" />
	<path style="stroke-linejoin:round;stroke:#000000;stroke-width:2.7344;stroke-miterlimit:4.0;fill:none;" d="M 158.2644,940.8406 C 158.2644,942.7898 159.4889,944.3705 160.9988,944.3705" />
	<path style="stroke-linejoin:round;stroke:#000000;stroke-width:2.7344;stroke-miterlimit:4.0;fill:none;" d="M 359.2428,944.3705 C 360.7527,944.3705 361.9772,942.7898 361.9772,940.8406" />
	<path style="stroke:#ff0000;stroke-width:5.4688;stroke-miterlimit:4.0;fill:none;" d="M 310.3517,647.858 L 310.3517,681.3921 117.5765,681.3921 117.5765,742.2831" />
	<path style="stroke:#ff0000;stroke-width:5.4688;stroke-miterlimit:4.0;fill:none;" d="M 281.6405,647.858 L 116.9203,647.858 116.9203,591.3794 67.0175,591.3794" />
	<path style="fill:#00ff00;" d="M 101.0281,663.8492 C 101.0281,683.1759 85.3549,698.8493 66.0283,698.8493 46.7017,698.8493 31.0285,683.1759 31.0285,663.8492 31.0285,644.5225 46.7017,628.8492 66.0283,628.8492 85.3549,628.8492 101.0281,644.5225 101.0281,663.8492 Z" />
	<path style="stroke:#000000;stroke-width:3.4585;stroke-miterlimit:4.0;fill:none;" d="M 102.0169,662.8601 C 102.0169,682.5874 86.3437,698.5855 67.0171,698.5855 47.6905,698.5855 32.0173,682.5874 32.0173,662.8601 32.0173,643.1328 47.6905,627.1347 67.0171,627.1347 86.3437,627.1347 102.0169,643.1328 102.0169,662.8601 Z" />
	<path style="stroke:#000000;stroke-width:2.7344;stroke-miterlimit:4.0;fill:#000000;" d="M 67.0175,627.1021 L 67.0175,591.3794" />
	<path style="stroke:#000000;stroke-width:2.7344;stroke-miterlimit:4.0;fill:#000000;" d="M 67.0175,698.6181 L 67.0175,734.3408" />
	<path style="stroke:#000000;stroke-width:2.7344;stroke-miterlimit:4.0;fill:#000000;" d="M 56.6267,680.7214 L 67.0175,644.9987" />
	<path style="stroke:#000000;stroke-width:2.7344;stroke-miterlimit:4.0;fill:#000000;" d="M 67.0175,644.9987 L 77.3808,680.7214" />
	<path style="stroke:#000000;stroke-width:2.7344;stroke-miterlimit:4.0;fill:#000000;" d="M 59.2518,671.7908 L 74.7558,671.7908" />
	<path style="stroke:#ff0000;stroke-width:8.2032;stroke-miterlimit:4.0;fill:#000000;" d="M 526.0411,251.3078 L 887.4468,251.0607" />
	<path style="fill:#ff0000;" d="M 897.7008,251.0607 L 884.0288,259.8855 887.4468,251.0607 884.0288,242.2359 897.7008,251.0607 Z" />
	<path style="stroke:#ff0000;stroke-width:8.2032;stroke-miterlimit:4.0;fill:none;" d="M 897.7008,251.0607 L 884.0288,259.8855 887.4468,251.0607 884.0288,242.2359 897.7008,251.0607 Z" />
</g>
</svg>